<?xml version="1.0" encoding="UTF-8" standalone="no"?>
<svg
   width="17mm"
   height="17mm"
   inkscape:version="1.2 (1:1.2+202206011327+fc4e4096c5)"
   sodipodi:docname="ghost.svg"
   version="1.1"
   viewBox="0 0 17 17"
   id="svg19471"
   xmlns:inkscape="http://www.inkscape.org/namespaces/inkscape"
   xmlns:sodipodi="http://sodipodi.sourceforge.net/DTD/sodipodi-0.dtd"
   xmlns="http://www.w3.org/2000/svg"
   xmlns:svg="http://www.w3.org/2000/svg">
  <defs
     id="defs19473" />
  <sodipodi:namedview
     bordercolor="#666666"
     borderopacity="1.0"
     inkscape:current-layer="g19469"
     inkscape:cx="26.958445"
     inkscape:cy="44.017395"
     inkscape:deskcolor="#d1d1d1"
     inkscape:document-units="mm"
     inkscape:pagecheckerboard="0"
     inkscape:pageopacity="0.0"
     inkscape:showpageshadow="2"
     inkscape:window-height="1043"
     inkscape:window-maximized="1"
     inkscape:window-width="1920"
     inkscape:window-x="1920"
     inkscape:window-y="0"
     inkscape:zoom="5.6568545"
     pagecolor="#ffffff"
     showgrid="true"
     showguides="false"
     id="namedview19463">
    <inkscape:grid
       dotted="false"
       originx="0"
       originy="0"
       spacingx="0.5"
       spacingy="0.5"
       type="xygrid"
       units="mm"
       id="grid19461" />
  </sodipodi:namedview>
  <g
     inkscape:groupmode="layer"
     inkscape:label="Layer 1"
     id="g19469">
    <g
       id="g102555">
      <ellipse
         cx="8.5"
         cy="8.5"
         rx="8.5"
         ry="8.5"
         fill="#fce94f"
         stop-color="#000000"
         style="paint-order:fill markers stroke;fill:#cccccc"
         id="ellipse19465" />
      <path
         d="M 8.4918301,2.457485 C 6.0366085,2.4618977 4.0476454,4.4535704 4.0476454,6.9098384 v 6.2032776 c 0,0.330555 0.399654,0.496088 0.633396,0.262369 L 5.5317711,12.5 6.7535266,13.746488 c 0.1449199,0.144898 0.3798409,0.144898 0.5247393,0 L 8.5,12.5 9.7217555,13.746488 c 0.1448971,0.144898 0.3798195,0.144898 0.5247165,0 L 11.46825,12.5 l 0.850729,0.875462 c 0.233719,0.23372 0.633395,0.06819 0.633395,-0.262369 V 6.9479718 C 12.952352,4.4946422 10.945158,2.4530996 8.4918301,2.457485 Z M 6.6448483,8.393941 c -0.6137826,0 -1.1130772,-0.4992947 -1.1130772,-1.1130772 0,-0.6137833 0.4993163,-1.1130768 1.1130772,-1.1130768 0.6137608,0 1.1130775,0.4993163 1.1130775,1.1130768 0,0.6137609 -0.499295,1.1130772 -1.1130775,1.1130772 z m 3.7103017,0 c -0.6137822,0 -1.1130769,-0.4992947 -1.1130769,-1.1130772 0,-0.6137833 0.4993163,-1.1130768 1.1130769,-1.1130768 0.613761,0 1.113077,0.4993163 1.113077,1.1130768 0,0.6137609 -0.499294,1.1130772 -1.113077,1.1130772 z"
         id="path129883-4"
         style="fill:#ffffff;stroke-width:0.383171"
         inkscape:label="it_5_path" />
    </g>
  </g>
</svg>
