<svg width="192.5mm" height="77.5mm" inkscape:version="1.2 (1:1.2+202206011327+fc4e4096c5)" sodipodi:docname="game_cards.svg" version="1.1" viewBox="0 0 192.5 77.5" xmlns="http://www.w3.org/2000/svg" xmlns:inkscape="http://www.inkscape.org/namespaces/inkscape" xmlns:sodipodi="http://sodipodi.sourceforge.net/DTD/sodipodi-0.dtd">
 <sodipodi:namedview bordercolor="#666666" borderopacity="1.0" inkscape:current-layer="layer1" inkscape:cx="325.89741" inkscape:cy="238.34288" inkscape:deskcolor="#d1d1d1" inkscape:document-units="mm" inkscape:pagecheckerboard="0" inkscape:pageopacity="0.0" inkscape:showpageshadow="2" inkscape:window-height="1043" inkscape:window-maximized="1" inkscape:window-width="1920" inkscape:window-x="1920" inkscape:window-y="0" inkscape:zoom="1.233517" pagecolor="#ffffff" showgrid="true" showguides="false">
  <inkscape:grid originx="0" originy="0" spacingx="0.50000001" spacingy="0.50000001" type="xygrid" units="mm"/>
 </sodipodi:namedview>
 <g inkscape:groupmode="layer" inkscape:label="Layer 1">
  <rect x="0" y="0" width="51.5" height="77.5" rx="0" ry="0" stop-color="#000000" style="paint-order:fill markers stroke"/>
  <rect x="52.5" y="0" width="140.5" height="77.5" rx="0" ry="0" stop-color="#000000" style="paint-order:fill markers stroke"/>

  <rect width="193" height="77.5" rx="0" ry="0" fill="#000000" stop-color="#000000" style="paint-order:fill markers stroke"/>

  <rect x="0" y="0" width="51.5" height="77.5" rx="0" ry="0" fill="#e6e6e6" stop-color="#000000" style="paint-order:fill markers stroke"/>
  
  <rect x="52.5" y="0" width="140.5" height="77.5" rx="0" ry="0" fill="#e0cda9 " stop-color="#000000" style="paint-order:fill markers stroke"/>
  
  
  <g inkscape:label="card_widlings">
   <rect x="7.5" y="20" width="37.5" height="50" rx="1.3229" ry="1.3229" fill="#808080" stop-color="#000000" stroke="#000" stroke-linecap="round" stroke-width=".79375" style="paint-order:fill markers stroke"/>
   <ellipse cx="26.25" cy="45" rx="10.5" ry="17" fill="#fff" stop-color="#000000" stroke="#000" stroke-linecap="round" stroke-width=".79375" style="paint-order:fill markers stroke"/>
   <path d="m21.203 34.533c0.24346 0.04294 0.55848 0.22876 0.83044 0.31464 0.01431-0.143 0.10006-0.31464 0.1862-0.42914 0.15745-0.24372 0.38646-0.45829 0.60129-0.64475 0.40078-0.32908 0.4294-0.88756 0.73011-1.2313 0.24346-0.28666 0.4726-0.41535 0.84514-0.42966 0.37202-0.02863 0.25751 0.02863 0.64423-0.18594 0.2432-0.12869 0.51554-0.21509 0.78724-0.24372 0.15796-0.01431 0.34378-0.02863 0.51554-0.02863 0.18646 0 0.35809 0.01418 0.51541 0.02863 0.28666 0.02863 0.54417 0.11502 0.78788 0.24372 0.38672 0.21457 0.17163 0.22889 0.52972 0.25751 0.38672 0.01431 0.60129 0.14352 0.8588 0.42966 0.30097 0.34378 0.42966 0.83069 0.84514 1.1598 0.21457 0.18646 0.32947 0.48678 0.48678 0.73063 0.08588 0.11438 0.15745 0.2717 0.17163 0.42914 0.27234-0.08588 0.60142-0.27183 0.84514-0.31477 0.51541-0.11438 0.83018 0.4726 1.0882 0.85932 0.37241 0.52986 0.77292 0.97344 0.77292 1.6182 0 0.52972-0.2432 1.3314-0.25751 1.8613-0.01418 0.50123 0 1.0453 0.3296 1.4606 0.2432 0.30045 0.81586 0.85893 0.40052 1.2457-0.10006 0.10006-0.2432 0.12869-0.38672 0.12869-0.22888-0.01418-0.95913-0.15732-1.1311 0-0.20026 0.18646-0.44346 0.4726-0.7443 0.45829-0.07157-0.01418-0.143-0.02863-0.20039-0.07157-0.02863 0.08588-0.04294 0.15745-0.07208 0.24384-0.05712 0.2432-0.08575 0.28614 0.01483 0.5149 0.143 0.31528 0.35758 1.0882 0 1.3462-0.04346 0.02863-0.0864 0.04294-0.14352 0.07157 0.68769 2.0763 2.2766 6.5151 3.8231 6.7588 2.0334 0.32908 2.692-1.5179 2.5345-2.8641-0.04281-0.37202-0.143-0.73011-0.32895-1.0453-0.61612-1.0739-2.062-1.4745-3.2075-1.4745-0.21509 0-0.28666 0.07157-0.50136 0.07157-0.14339 0-0.2579-0.05725-0.31515-0.18646-0.2432-0.52972 0.78775-0.62992 1.1311-0.70136 1.0168-0.20039 2.062-0.04294 2.9786 0.4009 1.6039 0.77305 2.3625 2.1909 2.1765 3.9233-0.15796 1.3607-0.91657 2.7207-2.1622 3.3506-1.3177 0.65893-2.9214 0.50123-4.1098-0.37202-0.9452-0.70149-1.7039-1.7902-2.2766-2.8065-0.60129-1.0597-1.1884-2.5919-1.6037-3.7373-0.143-0.4009-0.30097-0.81638-0.42966-1.2317-0.02876 0-0.05725-0.01431-0.08588-0.04294-0.05725 0.28666-0.12882 0.55835-0.18646 0.84501-0.10006 0.50123-0.17163 0.98814-0.18595 1.5037-0.04294 1.1596-0.62992 2.5484-1.1455 3.5651-0.44397 0.90226-0.7443 3.2932-0.55835 4.2814 0.04281 0.21509 0.12869 0.41535 0.2432 0.60129 0.15784 0.27234 0.37254 0.52972 0.61612 0.73063 0.07157 0.08575 0.31464 0.2717 0.42914 0.30032 0.57267-0.04281 1.0023 0.55848 1.0023 1.0882 0 0.8022-0.21457 0.75926-0.97383 0.90226-1.1168 0.22889-1.9327-0.95939-2.4912-1.7468-0.83069-1.1598-1.9906-3.1789-1.7184-4.6396 0.30071-1.5608 0.6588-3.8804 0.3149-5.4268-0.10006-0.4726-0.32934-1.5036-0.38646-1.9618-0.11477 0.35809-0.61586 1.246-0.74468 1.5894-0.41535 1.1455-0.65842 2.2914-1.2744 3.3505-0.57266 1.0166-1.3746 2.1048-2.3198 2.7925-1.1884 0.88743-2.4629 1.0739-3.7802 0.41496-1.26-0.63005-2.0188-1.9901-2.1622-3.3506-0.20026-1.7324 0.35809-3.1502 1.962-3.9233 0.91619-0.44384 1.8183-0.64423 2.835-0.44384 0.34378 0.05712 1.5608 0.28666 1.3174 0.81638-0.05712 0.12869-0.17189 0.07157-0.30058 0.07157-0.21483 0-0.42966-0.01431-0.64423-0.01431-1.1458 0-2.5919 0.48691-3.2075 1.5608-0.1862 0.31464-0.30097 0.67286-0.34391 1.0453-0.15732 1.3458 0.97383 3.2361 2.5919 2.7778 1.5036-0.42966 3.1933-4.6681 3.8806-6.7588-0.05738-0.01431-0.10032-0.02876-0.14326-0.05725-0.35784-0.25751-0.11438-0.93089 0.02876-1.2455 0.10006-0.2294 0.07157-0.27234 0.01418-0.50123-0.02863-0.08588-0.11451-0.40103-0.143-0.4726-0.05712 0.02863-0.17189 0.17163-0.24346 0.17163-0.30071 0.01431-0.54417-0.30045-0.74456-0.48678-0.15771-0.15745-0.902-0.02876-1.1311-0.01431-0.14326 0-0.2864-0.02863-0.38672-0.12869-0.41522-0.38685 0.2864-0.9452 0.52972-1.26 0.3296-0.4009 0.34391-0.95939 0.3296-1.4463-0.01431-0.52985-0.25803-1.2743-0.25803-1.804 0-0.64475 0.40103-1.1026 0.77331-1.6324 0.27221-0.38685 0.61612-1.074 1.1315-0.95952z" clip-rule="evenodd" fill="#ececec" fill-rule="evenodd" stroke-width=".54288"/>
   <path d="m22.492 47.263c-0.2432 0.7158-0.47221 1.4317-0.87325 2.1189-0.57267 1.0166-1.3746 2.1048-2.3198 2.7925-1.1884 0.88743-2.4629 1.0739-3.7802 0.41496-1.26-0.63005-2.0188-1.9901-2.1622-3.3506-0.20026-1.7324 0.35809-3.1502 1.962-3.9233 0.55835-0.27221 1.1168-0.44384 1.6896-0.50123-0.24359 0.12882-0.51554 0.27183-0.77331 0.42966-3.7517 2.3052-2.563 6.5009 0.4726 6.787 1.7611 0.15796 3.5368-0.73011 5.4984-4.5962 0.10019-0.18594 0.18594-0.24371 0.28614-0.17176zm6.2004-2.8498-0.01418-0.01418c-0.05725 0.28666-0.12882 0.55835-0.18646 0.84501-0.10006 0.50123-0.17163 0.98814-0.18595 1.5037-0.04294 1.1596-0.62992 2.5484-1.1455 3.5651-0.44397 0.90226-0.7443 3.2932-0.55835 4.2814 0.04281 0.21509 0.12869 0.41535 0.2432 0.60129 0.15783 0.27234 0.37254 0.52972 0.61612 0.73063 0.07157 0.08575 0.31464 0.2717 0.42914 0.30032 0.57267-0.04281 1.0023 0.55848 1.0023 1.0882 0 0.8022-0.21457 0.75926-0.97383 0.90226-0.42914 0.08588-0.83018-0.04294-1.174-0.2717 0.64423 0.20026 1.4749-0.27234 1.6467-0.50123 0.17215-0.24384 0.21509-0.88808-0.37202-0.98814-0.58698-0.11451-1.146 0.73011-1.1168 0.20039 0.04294-0.52986-0.57318-0.97383-0.57318-0.97383s-0.64423-0.63005-0.7443-1.074c-0.10006-0.45829 0.05713-0.7443 0.15732-1.4745 0.10071-0.7305-0.87312-0.90226-1.1455-0.91644-0.28614-0.01431 0.21509-0.45842 0.31515-0.64423 0.10019-0.18646 0.34339-0.42966 0.54417-0.81651 0.20039-0.37241 0.78737-0.25751 1.0311-0.6156 0.25751-0.37241 0.57267-1.1455 0.57267-1.1455s-0.14352 0-0.31515 0.01431c-0.17176 0.01418-0.21457 0-0.52985-0.08588-0.30032-0.07157-0.21457-0.14352-0.51541-0.27221-0.30045-0.12882-0.57267 0.08575-0.80168-0.05725-0.2294-0.143 0.05712-0.21457 0.01418-0.58698-0.04281-0.38685 0.22889-0.93102 0.44397-1.1884 0.22889-0.25803 0.18594-0.11502 0.60129 0.01418 0.40052 0.12882 0.75874 0.12882 1.0597 0.12882 0.30045 0 0.28614-0.01431 0.45829-0.04294 0.18594-0.02863 0.20039-0.20039 0.20039-0.20039s-0.35809-0.2579-0.68717-0.38672c-0.34391-0.12869-0.21509-0.08575-0.50123-0.21509-0.28666-0.12869-0.27234-0.15732-0.55848-0.2717-0.28666-0.10019-0.63044-0.01431-1.0023-0.01431-0.35809 0-0.18646-0.18594-0.4726-0.57266-0.28666-0.38672 0.20039-0.81638 0.25751-1.1168 0.04346-0.30097 0.30097-0.3296 0.91658-0.35809 0.62992-0.04294 1.5179-0.143 2.5345 0.20026 0.24294 0.08627 0.41522 0.24359 0.5296 0.42953zm9.4646 1.5466c0.91644 0.80207 1.3319 1.9475 1.1889 3.2789-0.15796 1.3607-0.91658 2.7207-2.1622 3.3506-1.3177 0.65893-2.9214 0.50123-4.1098-0.37202-0.9452-0.70149-1.7039-1.7902-2.2766-2.8065-0.60129-1.0453-1.1598-2.5491-1.5894-3.6801 0.17163-0.48691 0.42966-1.1168 0.61561-0.85932 0.45829 0.65842 1.217 3.6228 1.661 4.1669 0.7158 0.87312 0.60129 1.0739 1.1884 1.6324 0.58711 0.55835 1.1455 0.88795 1.8761 1.0596 0.7158 0.17176 1.5465 0.22888 2.1622-0.11451 0.6156-0.32947 1.031-0.47247 1.3029-0.94507 0.27221-0.48691 0.58698-1.1884 0.65893-1.7183 0.05725-0.51541 0.05725-1.7186-0.2579-2.1048-0.30097-0.37254-0.60142-0.85932-0.60142-0.85932s0.22876 0.10019 0.34326-0.0285zm-8.9491-4.6396s-0.20078-1.0019 0.11451-1.546c0.3296-0.54417 0.07157-0.63044 0.31515-1.0168 0.24333-0.38672 0.31477-0.21509 0.24333-0.50123-0.05725-0.27221-0.12882-0.4726-0.51554-0.32947-0.40103 0.143-0.80168 0.90213-0.78724 1.26 0.0285 0.35809 0.24307 2.0191 0.62979 2.1335zm-6.2147-3.4651c0 0.04294-0.38659 0.0717-0.40078 0.25751-0.01431 0.2009 0 0.41548 0.15758 0.71632 0.17176 0.30045 0.21457 0.34339 0.31502 0.64436 0.11438 0.28666 0.24346-0.01431 0.18582 0.44384-0.07157 0.44397 0.08614 0.74443-0.143 1.3888-0.24346 0.63044 0.81625-1.0882 0.84488-1.4889 0.02863-0.40103-0.02863-0.68769-0.02863-0.95939 0-0.25803-0.01431-0.25803-0.14326-0.41548-0.12882-0.15732-0.34365-0.64423-0.78762-0.58711zm10.825 3.2649c0.07208 0.18595 0.07208 0.38672-0.10006 0.54417-0.10006 0.10006-0.2432 0.12869-0.38672 0.12869-0.22888-0.01418-0.95913-0.15732-1.1311 0-0.20026 0.18646-0.44346 0.4726-0.7443 0.45829-0.07157-0.01418-0.143-0.02863-0.20039-0.07157-0.02863 0.08588-0.04294 0.15745-0.07208 0.24384-0.05712 0.2432-0.08575 0.28614 0.01483 0.5149 0.11451 0.25803 0.28614 0.83069 0.14301 1.1603-0.21509 0.08588-0.35809 0.12882-0.38672 0.12882-0.10019 0-0.95952 0.15732-0.95952 0.15732s-0.44384 0.12882-0.55835 0.14301c-0.11451 0.01431-0.42966 0.0864-0.42966-0.02863 0-0.11451-0.143-0.80168 0.18646-1.0453 0 0-0.01431-0.2432 0.64423-0.15745 0.65842 0.10019 0.08575-0.42966 0.38672-0.88795 0.28614-0.44346 1.0739-0.45777 0.61561-1.3887-0.45829-0.93102-0.57266-0.88808 0-1.3033 0.57267-0.41496 0.78724-0.77305 0.78724-1.1311 0-0.37189-0.2432-0.84449 0.02863-0.70136 0.27234 0.143 0.81651 0.62992 0.702 1.4035-0.11502 0.75874-0.52985 0.90174-0.17215 1.0019 0.34378 0.10058 0.61548-0.21457 0.93089 0.28666 0.15732 0.25777 0.4726 0.35784 0.70149 0.54391zm-12.644 3.05c-0.1577-0.31515 0.04294-0.83069 0.15745-1.1025 0.10006-0.2294 0.07157-0.27234 0.01418-0.50123-0.02863-0.08588-0.11451-0.3296-0.12869-0.41548-0.07157 0.02863-0.12908 0.05725-0.21483 0.05725-0.30071 0.02863-0.54417-0.21457-0.74468-0.40103-0.17163-0.15745-0.90187-0.02863-1.1455-0.01431-0.12895 0-0.27196-0.02863-0.37241-0.12869-0.12882-0.11451-0.07157-0.11451-0.05725-0.27183 0.1862-0.01418 0.40103-0.08627 0.58711-0.27221 0.60155-0.54417 0.25777-0.57266 0.64449-0.70149 0.38646-0.14352 0.41509-0.30084 0.41509-0.30084s-0.2864-0.44397-0.143-0.83018c0.15745-0.38672 0.12882-0.55848 0.27208-0.63056 0.143-0.07157 0.24346-0.25751 0.38646-0.08575 0.1577 0.17215 0.4726 0.54417 0.48691 0.71632 0.01418 0.15732 0.50123 0.54417 0.44384 1.1168-0.07157 0.55835-0.759 0.77292-0.50123 1.2885 0.25777 0.51554 0.759 0.30097 0.85906 0.67286 0.11476 0.35809 0.12908 0.38685-0.05712 0.78775-0.20052 0.40103-0.20052 0.34339 0.4726 0.41548 0.68717 0.07157 0.57266 0.08588 0.80194 0.25751 0.21457 0.15732 0.10006 1.0596 0.10006 1.0596l-1.9759-0.68717z" clip-rule="evenodd" fill="#808080" fill-rule="evenodd" stroke-width=".54288"/>
   <path d="m21.003 34.389c0.25777 0.04346 0.58698 0.24372 0.85906 0.3296 0.01431-0.15745 0.10006-0.31528 0.1862-0.44397 0.15732-0.2432 0.38646-0.4726 0.61561-0.65855 0.40103-0.3296 0.42966-0.90226 0.74456-1.2455 0.25777-0.30097 0.4726-0.42966 0.85932-0.44397 0.37202-0.02863 0.25751 0.02863 0.65855-0.18595 0.2432-0.14352 0.51554-0.21509 0.78724-0.24372 0.17215-0.01431 0.35809-0.02863 0.52986-0.02863 0.18633 0 0.37241 0.01418 0.52972 0.02863 0.28666 0.02863 0.55835 0.10006 0.8022 0.24372 0.40039 0.21457 0.28614 0.15745 0.65842 0.18595 0.38672 0.01431 0.60142 0.143 0.85932 0.44397 0.31477 0.34326 0.34339 0.91606 0.74443 1.2455 0.22876 0.18594 0.45829 0.41548 0.61561 0.65855 0.08575 0.12869 0.17163 0.28666 0.18633 0.44397 0.27183-0.08588 0.60142-0.28614 0.85893-0.3296 0.51541-0.11451 0.85932 0.5875 1.131 0.98801 0.38672 0.52985 0.78775 1.0025 0.78775 1.6468 0 0.54404-0.24372 1.3032-0.25803 1.8331-0.01419 0.51541 0.01431 1.0739 0.34391 1.4892 0.2432 0.31477 0.81586 1.0453 0.40103 1.4317-0.10058 0.10006-0.24372 0.14352-0.38672 0.12921-0.24384-0.01431-0.98814-0.14352-1.1598 0.01431-0.2009 0.18582-0.42966 0.47196-0.74494 0.45777-0.07157 0-0.143-0.02863-0.21457-0.07157-0.01418 0.08575-0.02863 0.17215-0.05712 0.25803-0.07157 0.2432-0.08588 0.28614 0.01431 0.51541 0.14301 0.32908 0.4009 1.0025 0.02863 1.2743-0.04294 0.02863-0.08588 0.04294-0.143 0.05712 0.70136 2.1194 2.2623 6.1004 3.7945 6.5295 1.6324 0.45829 2.4197-1.26 2.2624-2.6343-0.04294-0.37241-0.15745-0.74481-0.34391-1.0596-0.62992-1.1032-1.9327-1.3749-3.1069-1.3749-0.21509 0-0.42966 0.02863-0.64475 0.02863-0.143 0-0.2717-0.07157-0.32908-0.20026-0.24372-0.54417 1.0311-0.87363 1.3743-0.9452 1.0311-0.2009 2.105-0.04294 3.0359 0.41535 1.6324 0.78737 2.3911 2.4341 2.1907 4.1808-0.15732 1.3892-0.91645 2.7784-2.1907 3.4226-1.3462 0.67299-2.9786 0.50123-4.1813-0.38672-0.95939-0.7158-1.7326-1.8183-2.3195-2.8494-0.61548-1.0739-1.131-2.2481-1.5608-3.4083-0.15796-0.41496-0.30097-0.83018-0.42966-1.2457-0.02863-0.01418-0.05725-0.02863-0.08588-0.04294-0.07157 0.28666-0.143 0.57279-0.20078 0.85945-0.10019 0.50123-0.17176 1.0019-0.20039 1.5175-0.04294 1.1745-0.54417 2.2199-1.0596 3.2508-0.45842 0.91606-0.74443 3.0067-0.55848 4.0092 0.04294 0.21457 0.143 0.42966 0.25803 0.61561 0.15745 0.28666 0.3862 0.54417 0.61561 0.74481 0.08588 0.08588 0.32908 0.27183 0.44397 0.30045 0.58698-0.04294 1.0161 0.57266 1.0161 1.1025 0 0.81651-0.40052 1.1168-1.1596 1.2604-1.1456 0.22889-1.9758-0.97383-2.5486-1.7758-0.84501-1.1741-2.0191-3.2363-1.7473-4.7255 0.30084-1.5894 0.67286-3.9519 0.32947-5.527-0.11464-0.48678-0.18607-0.9452-0.24346-1.4177-0.11476 0.35809-0.24346 0.71632-0.37241 1.0739-0.4294 1.1602-0.94494 2.3344-1.5607 3.4083-0.58737 1.0311-1.3605 2.1336-2.3198 2.8494-1.2028 0.88795-2.8352 1.0597-4.1813 0.38672-1.2744-0.64423-2.0332-2.0334-2.1907-3.4226-0.20052-1.7468 0.55848-3.3933 2.1907-4.1808 0.93102-0.45829 2.0049-0.61612 3.0359-0.41535 0.34365 0.07157 1.6181 0.40103 1.3746 0.9452-0.05712 0.12869-0.1862 0.20026-0.3296 0.20026-0.21457 0-0.4294-0.02863-0.65855-0.02863-1.1596 0-2.4628 0.2717-3.093 1.3749-0.18594 0.31464-0.30058 0.68717-0.34352 1.0596-0.15745 1.3743 0.61586 3.0925 2.2626 2.6343 1.5319-0.42914 3.0927-4.4101 3.7946-6.5295-0.05725-0.01418-0.10019-0.02863-0.14326-0.05712-0.37228-0.2717-0.11451-0.9452 0.02888-1.2743 0.10006-0.22927 0.08575-0.27221 0.01418-0.51541-0.02888-0.08588-0.04307-0.17228-0.05738-0.25803-0.07157 0.04294-0.14301 0.07157-0.22914 0.07157-0.30058 0.01418-0.52972-0.27183-0.72998-0.45777-0.17202-0.15796-0.91658-0.02876-1.16-0.01431-0.143 0.01431-0.2864-0.02914-0.38646-0.12921-0.41548-0.38633 0.15732-1.1168 0.40065-1.4317 0.3296-0.41535 0.35822-0.97383 0.34391-1.4892-0.01431-0.52985-0.25777-1.2891-0.25777-1.8331 0-0.64423 0.40078-1.1168 0.77331-1.6468 0.27273-0.40052 0.63069-1.1024 1.1462-0.98801zm4.3389 21.407c0.28614-0.17163 0.44333 0.14352 0.7443-0.01418 0.28666-0.14301 0.35809-0.12882 0.50123-0.11451 0.12869 0.01431 0.22888-0.11451 0.22888-0.11451s0.02863 0.25803-0.15745 0.30097c-0.18608 0.04294-0.28614 0.04294-0.35809 0.11451-0.08588 0.05713-0.30045 0.04281-0.42914 0.05713-0.11489 0.01444-0.2579-0.21457-0.52973-0.2294zm-1.0168-3.6653s0.22876 0.11451 0.54417 0.10006c0.32908-0.01418 0.3862-0.01418 0.54417 0.04294 0.15732 0.05725 0.04281 0.15745 0.32895 0.10006 0.27234-0.07157 0.27234-0.07157 0.34391-0.11438 0.05712-0.04294 0.11451-0.07157 0.11451-0.07157s0.01418 0.31464-0.24333 0.3862c-0.2579 0.07208-0.21509 0.11502-0.35809 0.11502-0.12869 0-0.21457-0.07157-0.34378-0.10058-0.12869-0.02876-0.11451-0.08588-0.30045-0.08588-0.17163 0-0.2579 0.08588-0.42966 0-0.17176-0.085749-0.25764-0.32895-0.20039-0.37189zm1.1599-3.1501c0.34326 0.143 0.58698 0.15732 0.68704 0.15732 0.11451-0.01419 0.11451-0.01419 0.17176-0.01419 0.04294 0 0.04294-0.05725 0.17215 0.01419 0.11451 0.07157 0.15745 0.10006 0.28614 0.11451 0.14352 0 0.24372-0.04294 0.24372-0.04294s0.01431 0.143-0.25803 0.15796c-0.2717 0.02863-0.6156-0.07208-0.70136-0.07208-0.07157 0-0.3296 0.05712-0.44397 0.04294-0.12869-0.01431-0.34378-0.12882-0.38672-0.14301-0.02863-0.01431-0.143-0.08588-0.31464-0.05725-0.17215 0.04294-0.31528 0.15745-0.31528 0.15745 0.17189-0.45803 0.42953-0.50148 0.85919-0.3149zm-0.71632-2.5203s0.55887-0.18594 1.3461 0.15732c0.34378 0.14352 0.65855 0.05725 0.93089 0.11502 0.38685 0.08588 0.63005-0.01431 0.63005-0.01431-0.12882-0.0147-0.27234-0.08627-0.4726-0.11489-0.22888-0.02876-0.35809-0.22889-0.58711-0.24333-0.25803-0.01418-0.54417-0.11438-0.77292-0.17163-0.2009-0.04346-0.50123-0.08627-0.6735-0.07208-0.18582 0.0285-0.34326 0.14352-0.4009 0.34391zm-0.51502-2.2767c0.04294-0.2009 0.08575-0.48691 0.48627-0.63005 0.40103-0.14352 0.61612-0.14352 0.95952-0.12921 0.34378 0.01431 0.67338-0.01431 0.91644-0.04294 0.2432-0.01419 1.1311 0.04294 1.36 0.21509 0.24384 0.17163 0.40103 0.18594 0.40103 0.18594s-0.34326-0.3296-0.42966-0.48691c-0.07157-0.143-0.31464-0.30032-0.8588-0.2717-0.55835 0.01431-0.55835 0.143-1.0739 0.04294-0.51554-0.11451-0.45829-0.12934-0.71632-0.14352-1.131-0.02863-1.2455 1.0023-1.0446 1.2604zm-0.04346-3.0357c0.30097 0 0.41535-0.2432 1.0882-0.12869 0.65893 0.11451 0.95939 0.37241 1.2747 0.37241 0.31477 0 0.35809-0.04333 0.77305-0.05764 0.40103-0.01431 0.83069 0.25803 0.83069 0.25803-0.10006-0.73011-0.8022-0.63005-1.4178-0.52985-0.31464 0.04294-0.58711-0.14301-0.78724-0.17163-0.21509-0.04294-0.37254-0.10058-0.48678-0.10058h-0.3296c-0.10006-2.58e-4 -0.81599 0.10032-0.9452 0.35796zm4.2957-1.7039c-0.05725-0.12869-0.10019-0.32947-0.05725-0.60129 0.02863-0.143 0.14352-0.22927 0.17215-0.35809 0.08588-0.44397 0.14313-0.75874 0.78737-0.80168 0.143 0 0.34378 0.12882 0.41535 0.30045-0.02863 0-0.27221-0.12882-0.45829-0.05712-0.143 0.04281-0.17163 0.2579-0.3296 0.42966-0.10006 0.11438-0.17163 0.21457-0.22888 0.32947 0 0.02876-0.01418 0.05725-0.04281 0.10019-0.02876 0.08575-0.05725 0.18594-0.0717 0.25751 0.18595 0.21509 0.14313 0.35809 0.12882 0.91645 0.08588 0.20039 0.21457 0.45829 0.45829 0.75874 0.55848 0.74481 0.12882 2.0763 0.20039 2.3629 0.02863 0.15745-0.01431 0.25751-0.10019 0.38633-0.05713 0.10058-0.143 0.20078-0.22876 0.35809-0.01431 0.02863-0.02863 0.04294-0.02863 0.07157 0.07157 0.18646 0.57266 0.22927 0.91606 0.10006 0.41548-0.17163 0.52972-0.07157 0.85932-0.11451 0.10019-0.01418 0.15745-0.08575 0.20039-0.17163-0.04294-0.18594-0.17176-0.41548-0.40052-0.67286-0.45829-0.48691 0.22876-0.34391 0.37202-1.1603 0.14339-0.80168-0.71593-1.26-0.9452-1.6467-0.21457-0.38633-0.30045-0.74443 0.28666-0.98763 0.60129-0.24372 0.57266-0.4726 0.60129-1.0597 0.02863-0.45829-0.31464-1.5036-0.67286-2.0048l-0.01431-0.01431c-0.01418-0.02863-0.02863-0.04281-0.04294-0.07157-0.15783-0.14352-0.45829-0.11489-0.48678 0.01431-0.05713 0.21457-0.2294 0.30045-0.28666 0.35758-0.15745 0.12921-0.18595 0.2009-0.35758 0.21509-0.17215 0.01431-0.2009 0.3862-0.71632 0.15745-0.51554-0.22889-0.32908-0.42966-0.35758-0.63005-0.01431-0.18595 0.12869-0.38672-0.02876-0.91645-0.1149-0.40103-0.35809-0.9452-0.80207-1.4178 0.25803 0.15796 0.50123 0.35809 0.7158 0.63056 0.44384 0.25738 0.38672 0.10006 0.50123 0.08575 0.10058-0.01418 0.31515 0.20039 0.50123 0.22888 0.17215 0.01418-0.12869-0.45829-0.07157-0.54417 0.05713-0.08588 0.35809 0.20077 0.61561 0.37254 0.27221 0.17163 0.51554 0.25738 0.65906 0.14301 0.143-0.11451-0.05725-0.55848-0.51554-0.9305-0.4726-0.38672-0.64475-0.83069-0.87363-1.0886-0.22889-0.25751-0.3296-0.24333-0.60129-0.25751-0.27234-0.01431-0.31515-0.10006-0.84514-0.38672-0.28614-0.15745-1.8756-0.15745-2.1622 0-0.52973 0.28666-0.57267 0.37241-0.84449 0.38672-0.27234 0.01418-0.37254 0-0.60168 0.25751-0.22902 0.2579-0.40078 0.70187-0.87325 1.0886-0.45842 0.37202-0.6588 0.81599-0.51554 0.9305 0.143 0.11438 0.38646 0.02863 0.65855-0.14301 0.25764-0.17176 0.55835-0.45842 0.61573-0.37254 0.05725 0.08588-0.24346 0.55835-0.07183 0.54417 0.1862-0.02863 0.40103-0.2432 0.50136-0.22888 0.11451 0.01431 0.05712 0.17163 0.50123-0.08575 0.20026-0.27234 0.45829-0.4726 0.7158-0.63056-0.44346 0.4726-0.68717 1.0168-0.80168 1.4178-0.15732 0.52972-0.01419 0.7305-0.02863 0.91645-0.02863 0.20039 0.143 0.40103-0.35809 0.63005-0.51554 0.22876-0.54417-0.143-0.7158-0.15745-0.17202-0.01418-0.20065-0.08588-0.35809-0.21509-0.05725-0.05712-0.22889-0.143-0.28653-0.35758-0.02863-0.12921-0.32921-0.15796-0.48653-0.01431-0.01457 0.02876-0.02888 0.04294-0.05738 0.07157v0.01431c-0.35784 0.50123-0.70149 1.5465-0.67299 2.0048 0.02863 0.58711 0 0.81599 0.58711 1.0597 0.60129 0.2432 0.51554 0.60129 0.30071 0.98763-0.22914 0.38672-1.0882 0.84501-0.9452 1.6467 0.14326 0.81638 0.83069 0.67338 0.37254 1.1603-0.22914 0.25738-0.35796 0.48678-0.40103 0.67286 0.04307 0.08588 0.10032 0.15745 0.20052 0.17163 0.32934 0.04294 0.44397-0.05713 0.85906 0.11451 0.34391 0.12921 0.84514 0.0864 0.91658-0.10006 0-0.02863-0.01431-0.04294-0.02863-0.07157-0.08614-0.15745-0.17202-0.25751-0.22914-0.35809-0.08614-0.12882-0.12895-0.22889-0.10032-0.38633 0.07183-0.28666-0.35784-1.6181 0.20052-2.3629 0.41548-0.52973 0.52973-0.88743 0.55848-1.1311 0.01419-0.07157 0.01419-0.17163 0.02863-0.25738v-0.21509c0-0.10019-0.02863-0.21457-0.07157-0.32908-0.02863-0.04294-0.04294-0.07157-0.04294-0.10019-0.05712-0.11489-0.12895-0.21509-0.22914-0.32947-0.17163-0.17176-0.18607-0.38685-0.32921-0.42966-0.1862-0.0717-0.42979 0.05712-0.45842 0.05712 0.07182-0.17163 0.27208-0.30045 0.41548-0.30045 0.64423 0.04294 0.70136 0.35758 0.7875 0.80168 0.02863 0.12882 0.143 0.21509 0.17163 0.35809 0.01431 0.08588 0.01431 0.17163 0.01431 0.2432 0.11451 1.5608-0.63005 3.8952 0.12869 7.3172 0.37254 1.6896-0.07157 4.2814-0.32908 5.6562-0.24346 1.36 0.87312 3.3363 1.7039 4.496 0.81599 1.1456 1.432 1.804 2.2195 1.6468 0.80207-0.15745 0.93089-0.44397 0.93089-0.95951 0-0.50123-0.41548-0.81586-0.70149-0.78724-0.28666 0.02863-1.432-0.90226-1.6328-1.919-0.18595-1.0166 0.07195-3.1787 0.57318-4.2098 0.41483-0.80168 1.0019-1.9184 1.0453-3.1216 0.05713-1.6467 0.60129-2.6491 0.58698-3.9518-3.87e-4 -1.7328-0.14391-2.864-0.08665-3.8092zm-0.2432-4.4387c0.12882 0.11438 0.27234 0.18582 0.40103 0.07157 0.10019 0.04281 0.18595 0.10006 0.34339 0.12869 0.18646 0.02863 0.31515-0.02863 0.38672-0.12869 0.01431 0 0.02863 0.01418 0.04294 0.02863 0.31515 0.20026 0.74481 0.20026 1.0453-0.02863 0.25803-0.02876 0.48678-0.07157 0.93089-0.17228 0.57266-0.11438 1.5179 1.0453 1.5179 2.3487 0 1.3029-0.54417 2.3911 0.08575 3.1933 0.64436 0.78724 0.50136 0.97383 0.2147 0.95938-0.28627-0.02863-0.78737 0.01431-1.0882 0.30045-0.30045 0.28666-0.4726 0.51541-0.67299 0.2579 0.01431-0.01418 0.143-0.71632-0.2432-1.1745-0.40103-0.47208 0.21457-0.75874 0.4579-1.26 0.22927-0.51554 0.10058-0.7443 0.11489-0.78724 0-0.04294 0.15745-0.04294 0.34339 0.11451l0.01418 0.04294c0.17228 0.70136 0.02876 1.031-0.10006 1.2742 0.51554-0.21457 0.48691-0.93037 0.38672-1.3458-0.12869-0.54404-0.27221-1.1455-0.10006-1.6896 0.02863-0.08627 0.04294-0.15783 0.04294-0.24372-0.01431-0.28614-0.17215-0.54417-0.35809-0.7443-0.18595-0.18646-0.54417-0.45829-0.81599-0.4726-0.14339-0.01431-0.44384 0.07157-0.74481 0.17163-0.10006-0.10006-0.21457-0.18594-0.31464-0.21457-0.37254-0.11451-0.71632 0.05725-0.85932 0.38672-0.18595 0.05725-0.45829 0.15745-0.55848 0.15745-0.18594 0-0.27221-0.40103-0.28666-0.52973-0.04307-0.22953-0.10019-0.44423-0.18607-0.64436zm1.3176 9.9371c0.15745-0.02863 0.31464-0.10019 0.47208-0.17176 0.24372-0.14301 0.50123-0.24372 0.78775-0.28666 0.02863-0.01418 0.05712-0.01418 0.10006-0.01418 0.2432 0.74481 0.65855 1.9332 1.1884 3.1074 0.25803 0.64423 0.63005 1.1596 0.50123 1.5751-0.21457 0.78775 0.74481 1.4178 1.1598 1.6752 0.65906 0.41548 1.389 0.6156 2.0907 0.4726 1.6037-0.28614 2.2194-2.6776 1.3462-4.2098-1.0453-1.804-3.623-1.5036-4.024-1.5036-0.40103 0 1.5894-1.1455 3.9238-0.01431 0.20039 0.10058 0.22888 0.31528 0.40052 0.42966 1.2174 0.75926 1.6758 2.2195 1.4894 3.5942-0.3296 1.6324-1.5608 2.7636-3.0072 2.9208-1.4458 0.15796-2.4626-0.31464-3.2932-1.0596-2.2194-2.2052-2.7777-5.2547-3.1354-6.5152zm0.04294-6.6009c-0.04294 0.02863-0.10058 0.05712-0.15796 0.05712-0.10006 0.01431-0.2432 0.04294-0.28614 0.20039-0.04294 0.15783-0.01431 0.31515-0.08588 0.34378-0.05764 0.02876 0.02876 0.10019 0.24333 0.04294 0.20026-0.04294 0.38672-0.18595 0.37241-0.61561 0-0.05725-0.0285-0.05725-0.08575-0.02863zm-5.3846-3.3362c-0.12869 0.11438-0.2717 0.18582-0.40052 0.07157-0.10032 0.04281-0.1862 0.10006-0.34378 0.12869-0.18594 0.02863-0.31502-0.02863-0.38659-0.12869-0.01418 0-0.02863 0.01418-0.04281 0.02863-0.31502 0.20026-0.74468 0.20026-1.0453-0.02863-0.25777-0.02876-0.48691-0.07157-0.93102-0.17228-0.58698-0.11438-1.5176 1.0453-1.5176 2.3487 0 1.3029 0.54404 2.3911-0.08614 3.1933-0.64423 0.78724-0.50123 0.97383-0.21483 0.95938 0.28666-0.02863 0.7875 0.01431 1.0882 0.30045 0.30084 0.28666 0.4726 0.51541 0.67312 0.2579-0.01431-0.01418-0.14326-0.71632 0.24346-1.1745 0.40078-0.47208-0.21483-0.75874-0.45829-1.26-0.22914-0.51554-0.11451-0.7443-0.11451-0.78724-0.01418-0.04294-0.15758-0.04294-0.34378 0.11451l-0.01431 0.04294c-0.17163 0.70136-0.02863 1.031 0.10032 1.2742-0.51541-0.21457-0.50123-0.93037-0.38672-1.3458 0.12895-0.54404 0.27196-1.1455 0.10032-1.6896-0.02863-0.08627-0.04294-0.15783-0.04294-0.24372 0.01431-0.28614 0.17176-0.54417 0.35784-0.7443 0.1862-0.18646 0.54417-0.45829 0.80194-0.4726 0.15745-0.01431 0.45842 0.07157 0.759 0.17163 0.10006-0.10006 0.21483-0.18594 0.3149-0.21457 0.37228-0.11451 0.70174 0.05725 0.85919 0.38672 0.18607 0.05725 0.45829 0.15745 0.55835 0.15745 0.1862 0 0.27208-0.40103 0.2864-0.52973 0.04307-0.22953 0.10032-0.44423 0.18608-0.64436zm-1.317 9.9371c-0.15745-0.02863-0.31502-0.10019-0.4726-0.17176-0.24359-0.14301-0.50123-0.24372-0.7875-0.28666-0.02876-0.01418-0.05725-0.01418-0.10019-0.01418-0.24346 0.74481-0.65868 1.9332-1.2028 3.1074-0.24333 0.64423-0.61561 1.1596-0.48666 1.5751 0.21483 0.78775-0.74456 1.4178-1.16 1.6752-0.65842 0.41548-1.3889 0.6156-2.0907 0.4726-1.6037-0.28614-2.2194-2.6776-1.3457-4.2098 1.045-1.804 3.6226-1.5036 4.0234-1.5036 0.40103 0-1.5892-1.1455-3.9376-0.01431-0.18607 0.10058-0.22901 0.31528-0.4009 0.42966-1.2027 0.75926-1.661 2.2195-1.4891 3.5942 0.34352 1.6324 1.5751 2.7636 3.0213 2.9208 1.4464 0.15796 2.4629-0.31464 3.2934-1.0596 2.2194-2.2052 2.7777-5.2547 3.1358-6.5152zm-0.05738-6.6009c0.05725 0.02863 0.11451 0.05712 0.17163 0.05712 0.10045 0.01431 0.24359 0.04294 0.28666 0.20039 0.04294 0.15783 0.01431 0.31515 0.07157 0.34378 0.07157 0.02876-0.01418 0.10019-0.22901 0.04294-0.20065-0.04294-0.38659-0.18595-0.37228-0.61561 0-0.05725 0.01431-0.05725 0.07144-0.02863z" clip-rule="evenodd" fill-rule="evenodd" stroke-width=".54288"/>
  </g>
<g inkscape:label="card_westeros">
  <g inkscape:label="card_westeros_1">
    <rect x="57.9" y="20.397" width="37.5" height="50" rx="1.3229" ry="1.3229" fill="#cab2a3" stop-color="#000000" stroke="#000" stroke-linecap="round" stroke-width=".79375" style="paint-order:fill markers stroke"/>
    <ellipse cx="76.65" cy="45.397" rx="10.5" ry="17" fill="#fff" stop-color="#000000" stroke="#000" stroke-linecap="round" stroke-width=".79375" style="paint-order:fill markers stroke"/>
    <path d="m73.1 37.897h7.5v2.5h-2.5v10h2.5v2.5h-7.5v-2.5h2.5v-10h-2.5v-2.5" fill="#cab2a3" stroke="#cab2a3" stroke-width=".26458px"/>
	</g>
  <g inkscape:label="card_westeros_2">
    <rect x="102.9" y="20.397" width="37.5" height="50" rx="1.3229" ry="1.3229" fill="#d38d5f" stop-color="#000000" stroke="#000" stroke-linecap="round" stroke-width=".79375" style="paint-order:fill markers stroke"/>
    <ellipse cx="121.65" cy="45.397" rx="10.5" ry="17" fill="#fff" stop-color="#000000" stroke="#000" stroke-linecap="round" stroke-width=".79375" style="paint-order:fill markers stroke"/>
    <path d="m114.15 37.897h15v2.5h-2.5v10h2.5v2.5h-15v-2.5h2.5v-10h-2.5z" fill="#d38d5f" stroke="#d38d5f" stroke-width=".26458px"/>
    <path d="m119.15 40.397v10h5v-10z" fill="#fff"/>
   </g>
   <g inkscape:label="card_westeros_3">
    <rect x="147.9" y="20.397" width="37.5" height="50" rx="1.3229" ry="1.3229" fill="#784421" stop-color="#000000" stroke="#000" stroke-linecap="round" stroke-width=".79375" style="paint-order:fill markers stroke"/>
    <ellipse cx="166.65" cy="45.397" rx="10.5" ry="17" fill="#fff" stop-color="#000000" stroke="#000" stroke-linecap="round" stroke-width=".79375" style="paint-order:fill markers stroke"/>
    <path d="m157.9 37.897h17.5v2.5h-2.5v10h2.5v2.5h-17.5v-2.5h2.5v-10h-2.5v-2.5" fill="#784421" stroke="#784421" stroke-width=".26458px"/>
    <path d="m162.9 40.397v10h2.5v-10h-2.5" fill="#fff"/>
    <path d="m167.9 40.397v10h2.5v-10z" fill="#fff"/>
   </g>
  </g>
  <text x="121.69274" y="14.4341683" fill="#1a1a1a" font-family="cabin" font-size="7.0556px" stroke-width=".26458" text-align="center" text-anchor="middle" style="line-height:1.25" xml:space="preserve"><tspan x="121.69274" y="14.4341683" fill="#1a1a1a" font-size="7.0556px" stroke-width=".26458" sodipodi:role="line">Westeros</tspan></text>
  <text x="26.29586" y="14.26389" fill="#1a1a1a" font-family="cabin" font-size="7.0556px" stroke-width=".26458" text-align="center" text-anchor="middle" style="line-height:1.25" xml:space="preserve"><tspan x="26.29586" y="14.26389" fill="#1a1a1a" font-size="7.0556px" stroke-width=".26458" sodipodi:role="line">Wildlings</tspan></text>
</g>

</svg>
