<svg xmlns="http://www.w3.org/2000/svg" xmlns:xlink="http://www.w3.org/1999/xlink" width="940" zoomAndPan="magnify" viewBox="0 0 705 161.999997" height="216" preserveAspectRatio="xMidYMid meet" version="1.0"><defs><g/><clipPath id="98ab4c5f4c"><path d="M 0 17.75 L 704.875 17.75 L 704.875 161.535156 L 0 161.535156 Z M 0 17.75 " clip-rule="nonzero"/></clipPath><clipPath id="0e9c9b070b"><path d="M 38.25 17.75 L 666.066406 17.75 C 676.210938 17.75 685.941406 21.78125 693.113281 28.953125 C 700.289062 36.128906 704.316406 45.855469 704.316406 56 L 704.316406 123.285156 C 704.316406 133.429688 700.289062 143.15625 693.113281 150.332031 C 685.941406 157.503906 676.210938 161.535156 666.066406 161.535156 L 38.25 161.535156 C 28.105469 161.535156 18.375 157.503906 11.203125 150.332031 C 4.03125 143.15625 0 133.429688 0 123.285156 L 0 56 C 0 45.855469 4.03125 36.128906 11.203125 28.953125 C 18.375 21.78125 28.105469 17.75 38.25 17.75 Z M 38.25 17.75 " clip-rule="nonzero"/></clipPath><clipPath id="33fa172ae5"><path d="M 0.0078125 17.75 L 704.25 17.75 L 704.25 161.75 L 0.0078125 161.75 Z M 0.0078125 17.75 " clip-rule="nonzero"/></clipPath><clipPath id="e1659bd9b6"><path d="M 38.257812 17.75 L 666.050781 17.75 C 676.195312 17.75 685.921875 21.78125 693.097656 28.953125 C 700.269531 36.125 704.300781 45.855469 704.300781 56 L 704.300781 123.28125 C 704.300781 133.421875 700.269531 143.152344 693.097656 150.324219 C 685.921875 157.5 676.195312 161.527344 666.050781 161.527344 L 38.257812 161.527344 C 28.113281 161.527344 18.386719 157.5 11.210938 150.324219 C 4.039062 143.152344 0.0078125 133.421875 0.0078125 123.28125 L 0.0078125 56 C 0.0078125 45.855469 4.039062 36.125 11.210938 28.953125 C 18.386719 21.78125 28.113281 17.75 38.257812 17.75 Z M 38.257812 17.75 " clip-rule="nonzero"/></clipPath><clipPath id="dd155a12b1"><path d="M 36.25 51.445312 L 89.59375 51.445312 L 89.59375 143.757812 L 36.25 143.757812 Z M 36.25 51.445312 " clip-rule="nonzero"/></clipPath><clipPath id="6f460f8175"><path d="M 49 51.445312 L 76.84375 51.445312 C 80.226562 51.445312 83.46875 52.789062 85.859375 55.179688 C 88.25 57.570312 89.59375 60.816406 89.59375 64.195312 L 89.59375 130.890625 C 89.59375 134.273438 88.25 137.515625 85.859375 139.90625 C 83.46875 142.296875 80.226562 143.640625 76.84375 143.640625 L 49 143.640625 C 45.617188 143.640625 42.375 142.296875 39.984375 139.90625 C 37.59375 137.515625 36.25 134.273438 36.25 130.890625 L 36.25 64.195312 C 36.25 60.816406 37.59375 57.570312 39.984375 55.179688 C 42.375 52.789062 45.617188 51.445312 49 51.445312 Z M 49 51.445312 " clip-rule="nonzero"/></clipPath><clipPath id="f5a8fc6bd7"><path d="M 36.25 51.445312 L 89.5 51.445312 L 89.5 143.695312 L 36.25 143.695312 Z M 36.25 51.445312 " clip-rule="nonzero"/></clipPath><clipPath id="f88446c855"><path d="M 49 51.445312 L 76.84375 51.445312 C 80.222656 51.445312 83.46875 52.789062 85.859375 55.179688 C 88.25 57.570312 89.59375 60.8125 89.59375 64.195312 L 89.59375 130.886719 C 89.59375 134.269531 88.25 137.511719 85.859375 139.902344 C 83.46875 142.292969 80.222656 143.636719 76.84375 143.636719 L 49 143.636719 C 45.617188 143.636719 42.375 142.292969 39.984375 139.902344 C 37.59375 137.511719 36.25 134.269531 36.25 130.886719 L 36.25 64.195312 C 36.25 60.8125 37.59375 57.570312 39.984375 55.179688 C 42.375 52.789062 45.617188 51.445312 49 51.445312 Z M 49 51.445312 " clip-rule="nonzero"/></clipPath><clipPath id="5a0fd59a7d"><path d="M 102.101562 51.445312 L 155.445312 51.445312 L 155.445312 143.757812 L 102.101562 143.757812 Z M 102.101562 51.445312 " clip-rule="nonzero"/></clipPath><clipPath id="e7b1e8d917"><path d="M 114.851562 51.445312 L 142.695312 51.445312 C 146.078125 51.445312 149.320312 52.789062 151.710938 55.179688 C 154.101562 57.570312 155.445312 60.816406 155.445312 64.195312 L 155.445312 130.890625 C 155.445312 134.273438 154.101562 137.515625 151.710938 139.90625 C 149.320312 142.296875 146.078125 143.640625 142.695312 143.640625 L 114.851562 143.640625 C 111.46875 143.640625 108.226562 142.296875 105.835938 139.90625 C 103.445312 137.515625 102.101562 134.273438 102.101562 130.890625 L 102.101562 64.195312 C 102.101562 60.816406 103.445312 57.570312 105.835938 55.179688 C 108.226562 52.789062 111.46875 51.445312 114.851562 51.445312 Z M 114.851562 51.445312 " clip-rule="nonzero"/></clipPath><clipPath id="63fedc1646"><path d="M 102.101562 51.445312 L 155.351562 51.445312 L 155.351562 143.695312 L 102.101562 143.695312 Z M 102.101562 51.445312 " clip-rule="nonzero"/></clipPath><clipPath id="b98697902d"><path d="M 114.851562 51.445312 L 142.695312 51.445312 C 146.078125 51.445312 149.320312 52.789062 151.710938 55.179688 C 154.101562 57.570312 155.445312 60.8125 155.445312 64.195312 L 155.445312 130.886719 C 155.445312 134.269531 154.101562 137.511719 151.710938 139.902344 C 149.320312 142.292969 146.078125 143.636719 142.695312 143.636719 L 114.851562 143.636719 C 111.46875 143.636719 108.226562 142.292969 105.835938 139.902344 C 103.445312 137.511719 102.101562 134.269531 102.101562 130.886719 L 102.101562 64.195312 C 102.101562 60.8125 103.445312 57.570312 105.835938 55.179688 C 108.226562 52.789062 111.46875 51.445312 114.851562 51.445312 Z M 114.851562 51.445312 " clip-rule="nonzero"/></clipPath><clipPath id="5e006e16d7"><path d="M 167.953125 51.445312 L 221.300781 51.445312 L 221.300781 143.757812 L 167.953125 143.757812 Z M 167.953125 51.445312 " clip-rule="nonzero"/></clipPath><clipPath id="5997f011a7"><path d="M 180.703125 51.445312 L 208.550781 51.445312 C 211.929688 51.445312 215.175781 52.789062 217.566406 55.179688 C 219.957031 57.570312 221.300781 60.816406 221.300781 64.195312 L 221.300781 130.890625 C 221.300781 134.273438 219.957031 137.515625 217.566406 139.90625 C 215.175781 142.296875 211.929688 143.640625 208.550781 143.640625 L 180.703125 143.640625 C 177.324219 143.640625 174.078125 142.296875 171.6875 139.90625 C 169.296875 137.515625 167.953125 134.273438 167.953125 130.890625 L 167.953125 64.195312 C 167.953125 60.816406 169.296875 57.570312 171.6875 55.179688 C 174.078125 52.789062 177.324219 51.445312 180.703125 51.445312 Z M 180.703125 51.445312 " clip-rule="nonzero"/></clipPath><clipPath id="b68bd60c8a"><path d="M 167.953125 51.445312 L 221.203125 51.445312 L 221.203125 143.695312 L 167.953125 143.695312 Z M 167.953125 51.445312 " clip-rule="nonzero"/></clipPath><clipPath id="cb8f4912d0"><path d="M 180.703125 51.445312 L 208.546875 51.445312 C 211.929688 51.445312 215.171875 52.789062 217.5625 55.179688 C 219.953125 57.570312 221.296875 60.8125 221.296875 64.195312 L 221.296875 130.886719 C 221.296875 134.269531 219.953125 137.511719 217.5625 139.902344 C 215.171875 142.292969 211.929688 143.636719 208.546875 143.636719 L 180.703125 143.636719 C 177.324219 143.636719 174.078125 142.292969 171.6875 139.902344 C 169.296875 137.511719 167.953125 134.269531 167.953125 130.886719 L 167.953125 64.195312 C 167.953125 60.8125 169.296875 57.570312 171.6875 55.179688 C 174.078125 52.789062 177.324219 51.445312 180.703125 51.445312 Z M 180.703125 51.445312 " clip-rule="nonzero"/></clipPath><clipPath id="344519bb7f"><path d="M 628.925781 51.445312 L 682.269531 51.445312 L 682.269531 143.757812 L 628.925781 143.757812 Z M 628.925781 51.445312 " clip-rule="nonzero"/></clipPath><clipPath id="13ea823802"><path d="M 641.675781 51.445312 L 669.519531 51.445312 C 672.902344 51.445312 676.144531 52.789062 678.535156 55.179688 C 680.925781 57.570312 682.269531 60.816406 682.269531 64.195312 L 682.269531 130.890625 C 682.269531 134.273438 680.925781 137.515625 678.535156 139.90625 C 676.144531 142.296875 672.902344 143.640625 669.519531 143.640625 L 641.675781 143.640625 C 638.292969 143.640625 635.050781 142.296875 632.660156 139.90625 C 630.269531 137.515625 628.925781 134.273438 628.925781 130.890625 L 628.925781 64.195312 C 628.925781 60.816406 630.269531 57.570312 632.660156 55.179688 C 635.050781 52.789062 638.292969 51.445312 641.675781 51.445312 Z M 641.675781 51.445312 " clip-rule="nonzero"/></clipPath><clipPath id="b2a1852a83"><path d="M 628.925781 51.445312 L 682.175781 51.445312 L 682.175781 143.695312 L 628.925781 143.695312 Z M 628.925781 51.445312 " clip-rule="nonzero"/></clipPath><clipPath id="02612130dd"><path d="M 641.675781 51.445312 L 669.519531 51.445312 C 672.898438 51.445312 676.144531 52.789062 678.535156 55.179688 C 680.925781 57.570312 682.269531 60.8125 682.269531 64.195312 L 682.269531 130.886719 C 682.269531 134.269531 680.925781 137.511719 678.535156 139.902344 C 676.144531 142.292969 672.898438 143.636719 669.519531 143.636719 L 641.675781 143.636719 C 638.292969 143.636719 635.050781 142.292969 632.660156 139.902344 C 630.269531 137.511719 628.925781 134.269531 628.925781 130.886719 L 628.925781 64.195312 C 628.925781 60.8125 630.269531 57.570312 632.660156 55.179688 C 635.050781 52.789062 638.292969 51.445312 641.675781 51.445312 Z M 641.675781 51.445312 " clip-rule="nonzero"/></clipPath><clipPath id="7ef62d8dab"><path d="M 563.070312 51.445312 L 616.417969 51.445312 L 616.417969 143.757812 L 563.070312 143.757812 Z M 563.070312 51.445312 " clip-rule="nonzero"/></clipPath><clipPath id="4c090efe1e"><path d="M 575.820312 51.445312 L 603.667969 51.445312 C 607.046875 51.445312 610.292969 52.789062 612.683594 55.179688 C 615.074219 57.570312 616.417969 60.816406 616.417969 64.195312 L 616.417969 130.890625 C 616.417969 134.273438 615.074219 137.515625 612.683594 139.90625 C 610.292969 142.296875 607.046875 143.640625 603.667969 143.640625 L 575.820312 143.640625 C 572.441406 143.640625 569.199219 142.296875 566.804688 139.90625 C 564.414062 137.515625 563.070312 134.273438 563.070312 130.890625 L 563.070312 64.195312 C 563.070312 60.816406 564.414062 57.570312 566.804688 55.179688 C 569.199219 52.789062 572.441406 51.445312 575.820312 51.445312 Z M 575.820312 51.445312 " clip-rule="nonzero"/></clipPath><clipPath id="a0da0bfea4"><path d="M 563.070312 51.445312 L 616.320312 51.445312 L 616.320312 143.695312 L 563.070312 143.695312 Z M 563.070312 51.445312 " clip-rule="nonzero"/></clipPath><clipPath id="9458d8c2f9"><path d="M 575.820312 51.445312 L 603.664062 51.445312 C 607.046875 51.445312 610.289062 52.789062 612.679688 55.179688 C 615.074219 57.570312 616.414062 60.8125 616.414062 64.195312 L 616.414062 130.886719 C 616.414062 134.269531 615.074219 137.511719 612.679688 139.902344 C 610.289062 142.292969 607.046875 143.636719 603.664062 143.636719 L 575.820312 143.636719 C 572.441406 143.636719 569.199219 142.292969 566.804688 139.902344 C 564.414062 137.511719 563.070312 134.269531 563.070312 130.886719 L 563.070312 64.195312 C 563.070312 60.8125 564.414062 57.570312 566.804688 55.179688 C 569.199219 52.789062 572.441406 51.445312 575.820312 51.445312 Z M 575.820312 51.445312 " clip-rule="nonzero"/></clipPath><clipPath id="511609f42a"><path d="M 497.21875 51.445312 L 550.5625 51.445312 L 550.5625 143.757812 L 497.21875 143.757812 Z M 497.21875 51.445312 " clip-rule="nonzero"/></clipPath><clipPath id="1e9f9eb423"><path d="M 509.96875 51.445312 L 537.8125 51.445312 C 541.195312 51.445312 544.4375 52.789062 546.828125 55.179688 C 549.21875 57.570312 550.5625 60.816406 550.5625 64.195312 L 550.5625 130.890625 C 550.5625 134.273438 549.21875 137.515625 546.828125 139.90625 C 544.4375 142.296875 541.195312 143.640625 537.8125 143.640625 L 509.96875 143.640625 C 506.585938 143.640625 503.34375 142.296875 500.953125 139.90625 C 498.5625 137.515625 497.21875 134.273438 497.21875 130.890625 L 497.21875 64.195312 C 497.21875 60.816406 498.5625 57.570312 500.953125 55.179688 C 503.34375 52.789062 506.585938 51.445312 509.96875 51.445312 Z M 509.96875 51.445312 " clip-rule="nonzero"/></clipPath><clipPath id="c5ee457c48"><path d="M 497.21875 51.445312 L 550.46875 51.445312 L 550.46875 143.695312 L 497.21875 143.695312 Z M 497.21875 51.445312 " clip-rule="nonzero"/></clipPath><clipPath id="2a60e432bf"><path d="M 509.96875 51.445312 L 537.8125 51.445312 C 541.195312 51.445312 544.4375 52.789062 546.828125 55.179688 C 549.21875 57.570312 550.5625 60.8125 550.5625 64.195312 L 550.5625 130.886719 C 550.5625 134.269531 549.21875 137.511719 546.828125 139.902344 C 544.4375 142.292969 541.195312 143.636719 537.8125 143.636719 L 509.96875 143.636719 C 506.585938 143.636719 503.34375 142.292969 500.953125 139.902344 C 498.5625 137.511719 497.21875 134.269531 497.21875 130.886719 L 497.21875 64.195312 C 497.21875 60.8125 498.5625 57.570312 500.953125 55.179688 C 503.34375 52.789062 506.585938 51.445312 509.96875 51.445312 Z M 509.96875 51.445312 " clip-rule="nonzero"/></clipPath><clipPath id="472c554124"><path d="M 431.367188 51.445312 L 484.710938 51.445312 L 484.710938 143.757812 L 431.367188 143.757812 Z M 431.367188 51.445312 " clip-rule="nonzero"/></clipPath><clipPath id="9222da3055"><path d="M 444.117188 51.445312 L 471.960938 51.445312 C 475.34375 51.445312 478.585938 52.789062 480.976562 55.179688 C 483.367188 57.570312 484.710938 60.816406 484.710938 64.195312 L 484.710938 130.890625 C 484.710938 134.273438 483.367188 137.515625 480.976562 139.90625 C 478.585938 142.296875 475.34375 143.640625 471.960938 143.640625 L 444.117188 143.640625 C 440.734375 143.640625 437.492188 142.296875 435.101562 139.90625 C 432.710938 137.515625 431.367188 134.273438 431.367188 130.890625 L 431.367188 64.195312 C 431.367188 60.816406 432.710938 57.570312 435.101562 55.179688 C 437.492188 52.789062 440.734375 51.445312 444.117188 51.445312 Z M 444.117188 51.445312 " clip-rule="nonzero"/></clipPath><clipPath id="e358ebd789"><path d="M 431.367188 51.445312 L 484.617188 51.445312 L 484.617188 143.695312 L 431.367188 143.695312 Z M 431.367188 51.445312 " clip-rule="nonzero"/></clipPath><clipPath id="a7def374d9"><path d="M 444.117188 51.445312 L 471.960938 51.445312 C 475.339844 51.445312 478.585938 52.789062 480.976562 55.179688 C 483.367188 57.570312 484.710938 60.8125 484.710938 64.195312 L 484.710938 130.886719 C 484.710938 134.269531 483.367188 137.511719 480.976562 139.902344 C 478.585938 142.292969 475.339844 143.636719 471.960938 143.636719 L 444.117188 143.636719 C 440.734375 143.636719 437.492188 142.292969 435.101562 139.902344 C 432.710938 137.511719 431.367188 134.269531 431.367188 130.886719 L 431.367188 64.195312 C 431.367188 60.8125 432.710938 57.570312 435.101562 55.179688 C 437.492188 52.789062 440.734375 51.445312 444.117188 51.445312 Z M 444.117188 51.445312 " clip-rule="nonzero"/></clipPath><clipPath id="cf08f21cc0"><path d="M 365.511719 51.445312 L 418.859375 51.445312 L 418.859375 143.757812 L 365.511719 143.757812 Z M 365.511719 51.445312 " clip-rule="nonzero"/></clipPath><clipPath id="8b34702193"><path d="M 378.261719 51.445312 L 406.109375 51.445312 C 409.488281 51.445312 412.734375 52.789062 415.125 55.179688 C 417.515625 57.570312 418.859375 60.816406 418.859375 64.195312 L 418.859375 130.890625 C 418.859375 134.273438 417.515625 137.515625 415.125 139.90625 C 412.734375 142.296875 409.488281 143.640625 406.109375 143.640625 L 378.261719 143.640625 C 374.882812 143.640625 371.640625 142.296875 369.246094 139.90625 C 366.855469 137.515625 365.511719 134.273438 365.511719 130.890625 L 365.511719 64.195312 C 365.511719 60.816406 366.855469 57.570312 369.246094 55.179688 C 371.640625 52.789062 374.882812 51.445312 378.261719 51.445312 Z M 378.261719 51.445312 " clip-rule="nonzero"/></clipPath><clipPath id="244ba0a679"><path d="M 365.511719 51.445312 L 418.761719 51.445312 L 418.761719 143.695312 L 365.511719 143.695312 Z M 365.511719 51.445312 " clip-rule="nonzero"/></clipPath><clipPath id="6570f77611"><path d="M 378.261719 51.445312 L 406.105469 51.445312 C 409.488281 51.445312 412.730469 52.789062 415.121094 55.179688 C 417.511719 57.570312 418.855469 60.8125 418.855469 64.195312 L 418.855469 130.886719 C 418.855469 134.269531 417.511719 137.511719 415.121094 139.902344 C 412.730469 142.292969 409.488281 143.636719 406.105469 143.636719 L 378.261719 143.636719 C 374.882812 143.636719 371.640625 142.292969 369.246094 139.902344 C 366.855469 137.511719 365.511719 134.269531 365.511719 130.886719 L 365.511719 64.195312 C 365.511719 60.8125 366.855469 57.570312 369.246094 55.179688 C 371.640625 52.789062 374.882812 51.445312 378.261719 51.445312 Z M 378.261719 51.445312 " clip-rule="nonzero"/></clipPath><clipPath id="1a50f5bbbb"><path d="M 299.660156 51.445312 L 353.003906 51.445312 L 353.003906 143.757812 L 299.660156 143.757812 Z M 299.660156 51.445312 " clip-rule="nonzero"/></clipPath><clipPath id="b41b1b6a07"><path d="M 312.410156 51.445312 L 340.253906 51.445312 C 343.636719 51.445312 346.878906 52.789062 349.269531 55.179688 C 351.660156 57.570312 353.003906 60.816406 353.003906 64.195312 L 353.003906 130.890625 C 353.003906 134.273438 351.660156 137.515625 349.269531 139.90625 C 346.878906 142.296875 343.636719 143.640625 340.253906 143.640625 L 312.410156 143.640625 C 309.027344 143.640625 305.785156 142.296875 303.394531 139.90625 C 301.003906 137.515625 299.660156 134.273438 299.660156 130.890625 L 299.660156 64.195312 C 299.660156 60.816406 301.003906 57.570312 303.394531 55.179688 C 305.785156 52.789062 309.027344 51.445312 312.410156 51.445312 Z M 312.410156 51.445312 " clip-rule="nonzero"/></clipPath><clipPath id="5c590e8a96"><path d="M 299.660156 51.445312 L 352.910156 51.445312 L 352.910156 143.695312 L 299.660156 143.695312 Z M 299.660156 51.445312 " clip-rule="nonzero"/></clipPath><clipPath id="b1be684060"><path d="M 312.410156 51.445312 L 340.253906 51.445312 C 343.636719 51.445312 346.878906 52.789062 349.269531 55.179688 C 351.660156 57.570312 353.003906 60.8125 353.003906 64.195312 L 353.003906 130.886719 C 353.003906 134.269531 351.660156 137.511719 349.269531 139.902344 C 346.878906 142.292969 343.636719 143.636719 340.253906 143.636719 L 312.410156 143.636719 C 309.027344 143.636719 305.785156 142.292969 303.394531 139.902344 C 301.003906 137.511719 299.660156 134.269531 299.660156 130.886719 L 299.660156 64.195312 C 299.660156 60.8125 301.003906 57.570312 303.394531 55.179688 C 305.785156 52.789062 309.027344 51.445312 312.410156 51.445312 Z M 312.410156 51.445312 " clip-rule="nonzero"/></clipPath><clipPath id="7f300c9029"><path d="M 233.808594 51.445312 L 287.152344 51.445312 L 287.152344 143.757812 L 233.808594 143.757812 Z M 233.808594 51.445312 " clip-rule="nonzero"/></clipPath><clipPath id="066a6713d6"><path d="M 246.558594 51.445312 L 274.402344 51.445312 C 277.785156 51.445312 281.027344 52.789062 283.417969 55.179688 C 285.808594 57.570312 287.152344 60.816406 287.152344 64.195312 L 287.152344 130.890625 C 287.152344 134.273438 285.808594 137.515625 283.417969 139.90625 C 281.027344 142.296875 277.785156 143.640625 274.402344 143.640625 L 246.558594 143.640625 C 243.175781 143.640625 239.933594 142.296875 237.542969 139.90625 C 235.152344 137.515625 233.808594 134.273438 233.808594 130.890625 L 233.808594 64.195312 C 233.808594 60.816406 235.152344 57.570312 237.542969 55.179688 C 239.933594 52.789062 243.175781 51.445312 246.558594 51.445312 Z M 246.558594 51.445312 " clip-rule="nonzero"/></clipPath><clipPath id="73160e8acb"><path d="M 233.808594 51.445312 L 287.058594 51.445312 L 287.058594 143.695312 L 233.808594 143.695312 Z M 233.808594 51.445312 " clip-rule="nonzero"/></clipPath><clipPath id="5804b2c9c2"><path d="M 246.558594 51.445312 L 274.402344 51.445312 C 277.78125 51.445312 281.027344 52.789062 283.417969 55.179688 C 285.808594 57.570312 287.152344 60.8125 287.152344 64.195312 L 287.152344 130.886719 C 287.152344 134.269531 285.808594 137.511719 283.417969 139.902344 C 281.027344 142.292969 277.78125 143.636719 274.402344 143.636719 L 246.558594 143.636719 C 243.175781 143.636719 239.933594 142.292969 237.542969 139.902344 C 235.152344 137.511719 233.808594 134.269531 233.808594 130.886719 L 233.808594 64.195312 C 233.808594 60.8125 235.152344 57.570312 237.542969 55.179688 C 239.933594 52.789062 243.175781 51.445312 246.558594 51.445312 Z M 246.558594 51.445312 " clip-rule="nonzero"/></clipPath><clipPath id="70e99ec797"><path d="M 238 1.417969 L 458 1.417969 L 458 68 L 238 68 Z M 238 1.417969 " clip-rule="nonzero"/></clipPath><clipPath id="009ee4b30e"><path d="M 238 1.417969 L 449 1.417969 L 449 68 L 238 68 Z M 238 1.417969 " clip-rule="nonzero"/></clipPath><clipPath id="941cf8fb15"><path d="M 237.71875 1.417969 L 458.507812 1.417969 L 458.507812 68.167969 L 237.71875 68.167969 Z M 237.71875 1.417969 " clip-rule="nonzero"/></clipPath></defs><g clip-path="url(#98ab4c5f4c)"><g clip-path="url(#0e9c9b070b)"><path fill="#e0cda9" d="M 0 17.75 L 704.3125 17.75 L 704.3125 161.535156 L 0 161.535156 Z M 0 17.75 " fill-opacity="1" fill-rule="nonzero"/></g></g><g clip-path="url(#33fa172ae5)"><g clip-path="url(#e1659bd9b6)"><path stroke-linecap="butt" transform="matrix(0.75, 0, 0, 0.75, 0.00939113, 17.750543)" fill="none" stroke-linejoin="miter" d="M 50.997898 -0.000724549 L 888.05524 -0.000724549 C 901.581283 -0.000724549 914.550034 5.374276 924.117742 14.936776 C 933.680243 24.499277 939.055243 37.473236 939.055243 50.999279 L 939.055243 140.707617 C 939.055243 154.228451 933.680243 167.202411 924.117742 176.764911 C 914.550034 186.33262 901.581283 191.702412 888.05524 191.702412 L 50.997898 191.702412 C 37.471856 191.702412 24.503105 186.33262 14.935396 176.764911 C 5.372895 167.202411 -0.00210484 154.228451 -0.00210484 140.707617 L -0.00210484 50.999279 C -0.00210484 37.473236 5.372895 24.499277 14.935396 14.936776 C 24.503105 5.374276 37.471856 -0.000724549 50.997898 -0.000724549 Z M 50.997898 -0.000724549 " stroke="#000000" stroke-width="10" stroke-opacity="1" stroke-miterlimit="4"/></g></g><g clip-path="url(#dd155a12b1)"><g clip-path="url(#6f460f8175)"><path fill="#737373" d="M 36.25 51.445312 L 89.59375 51.445312 L 89.59375 143.550781 L 36.25 143.550781 Z M 36.25 51.445312 " fill-opacity="1" fill-rule="nonzero"/></g></g><g clip-path="url(#f5a8fc6bd7)"><g clip-path="url(#f88446c855)"><path stroke-linecap="butt" transform="matrix(0.75, 0, 0, 0.75, 36.248889, 51.446167)" fill="none" stroke-linejoin="miter" d="M 17.001483 -0.00113867 L 54.126485 -0.00113867 C 58.631694 -0.00113867 62.959819 1.790528 66.147319 4.978028 C 69.334819 8.165528 71.126486 12.488445 71.126486 16.998862 L 71.126486 105.920743 C 71.126486 110.43116 69.334819 114.754077 66.147319 117.941577 C 62.959819 121.129077 58.631694 122.920744 54.126485 122.920744 L 17.001483 122.920744 C 12.491066 122.920744 8.168149 121.129077 4.980649 117.941577 C 1.793149 114.754077 0.00148178 110.43116 0.00148178 105.920743 L 0.00148178 16.998862 C 0.00148178 12.488445 1.793149 8.165528 4.980649 4.978028 C 8.168149 1.790528 12.491066 -0.00113867 17.001483 -0.00113867 Z M 17.001483 -0.00113867 " stroke="#a6a6a6" stroke-width="10" stroke-opacity="1" stroke-miterlimit="4"/></g></g><g clip-path="url(#5a0fd59a7d)"><g clip-path="url(#e7b1e8d917)"><path fill="#737373" d="M 102.101562 51.445312 L 155.445312 51.445312 L 155.445312 143.550781 L 102.101562 143.550781 Z M 102.101562 51.445312 " fill-opacity="1" fill-rule="nonzero"/></g></g><g clip-path="url(#63fedc1646)"><g clip-path="url(#b98697902d)"><path stroke-linecap="butt" transform="matrix(0.75, 0, 0, 0.75, 102.101792, 51.446167)" fill="none" stroke-linejoin="miter" d="M 16.999696 -0.00113867 L 54.124698 -0.00113867 C 58.635115 -0.00113867 62.958032 1.790528 66.145532 4.978028 C 69.333032 8.165528 71.124699 12.488445 71.124699 16.998862 L 71.124699 105.920743 C 71.124699 110.43116 69.333032 114.754077 66.145532 117.941577 C 62.958032 121.129077 58.635115 122.920744 54.124698 122.920744 L 16.999696 122.920744 C 12.489279 122.920744 8.166362 121.129077 4.978862 117.941577 C 1.791361 114.754077 -0.000305444 110.43116 -0.000305444 105.920743 L -0.000305444 16.998862 C -0.000305444 12.488445 1.791361 8.165528 4.978862 4.978028 C 8.166362 1.790528 12.489279 -0.00113867 16.999696 -0.00113867 Z M 16.999696 -0.00113867 " stroke="#a6a6a6" stroke-width="10" stroke-opacity="1" stroke-miterlimit="4"/></g></g><g clip-path="url(#5e006e16d7)"><g clip-path="url(#5997f011a7)"><path fill="#737373" d="M 167.953125 51.445312 L 221.300781 51.445312 L 221.300781 143.550781 L 167.953125 143.550781 Z M 167.953125 51.445312 " fill-opacity="1" fill-rule="nonzero"/></g></g><g clip-path="url(#b68bd60c8a)"><g clip-path="url(#cb8f4912d0)"><path stroke-linecap="butt" transform="matrix(0.75, 0, 0, 0.75, 167.954718, 51.446167)" fill="none" stroke-linejoin="miter" d="M 16.997877 -0.00113867 L 54.122879 -0.00113867 C 58.633296 -0.00113867 62.956213 1.790528 66.143713 4.978028 C 69.331213 8.165528 71.12288 12.488445 71.12288 16.998862 L 71.12288 105.920743 C 71.12288 110.43116 69.331213 114.754077 66.143713 117.941577 C 62.956213 121.129077 58.633296 122.920744 54.122879 122.920744 L 16.997877 122.920744 C 12.492668 122.920744 8.164543 121.129077 4.977043 117.941577 C 1.789543 114.754077 -0.00212403 110.43116 -0.00212403 105.920743 L -0.00212403 16.998862 C -0.00212403 12.488445 1.789543 8.165528 4.977043 4.978028 C 8.164543 1.790528 12.492668 -0.00113867 16.997877 -0.00113867 Z M 16.997877 -0.00113867 " stroke="#a6a6a6" stroke-width="10" stroke-opacity="1" stroke-miterlimit="4"/></g></g><g clip-path="url(#344519bb7f)"><g clip-path="url(#13ea823802)"><path fill="#872f2f" d="M 628.925781 51.445312 L 682.269531 51.445312 L 682.269531 143.550781 L 628.925781 143.550781 Z M 628.925781 51.445312 " fill-opacity="1" fill-rule="nonzero"/></g></g><g clip-path="url(#b2a1852a83)"><g clip-path="url(#02612130dd)"><path stroke-linecap="butt" transform="matrix(0.75, 0, 0, 0.75, 628.925129, 51.446167)" fill="none" stroke-linejoin="miter" d="M 17.000871 -0.00113867 L 54.125873 -0.00113867 C 58.631082 -0.00113867 62.959207 1.790528 66.146707 4.978028 C 69.334208 8.165528 71.125874 12.488445 71.125874 16.998862 L 71.125874 105.920743 C 71.125874 110.43116 69.334208 114.754077 66.146707 117.941577 C 62.959207 121.129077 58.631082 122.920744 54.125873 122.920744 L 17.000871 122.920744 C 12.490454 122.920744 8.167537 121.129077 4.980037 117.941577 C 1.792537 114.754077 0.000870099 110.43116 0.000870099 105.920743 L 0.000870099 16.998862 C 0.000870099 12.488445 1.792537 8.165528 4.980037 4.978028 C 8.167537 1.790528 12.490454 -0.00113867 17.000871 -0.00113867 Z M 17.000871 -0.00113867 " stroke="#b52929" stroke-width="10" stroke-opacity="1" stroke-miterlimit="4"/></g></g><g clip-path="url(#7ef62d8dab)"><g clip-path="url(#4c090efe1e)"><path fill="#737373" d="M 563.070312 51.445312 L 616.417969 51.445312 L 616.417969 143.550781 L 563.070312 143.550781 Z M 563.070312 51.445312 " fill-opacity="1" fill-rule="nonzero"/></g></g><g clip-path="url(#a0da0bfea4)"><g clip-path="url(#9458d8c2f9)"><path stroke-linecap="butt" transform="matrix(0.75, 0, 0, 0.75, 563.072205, 51.446167)" fill="none" stroke-linejoin="miter" d="M 16.997478 -0.00113867 L 54.12248 -0.00113867 C 58.632897 -0.00113867 62.955814 1.790528 66.143314 4.978028 C 69.336023 8.165528 71.122481 12.488445 71.122481 16.998862 L 71.122481 105.920743 C 71.122481 110.43116 69.336023 114.754077 66.143314 117.941577 C 62.955814 121.129077 58.632897 122.920744 54.12248 122.920744 L 16.997478 122.920744 C 12.49227 122.920744 8.169353 121.129077 4.976644 117.941577 C 1.789144 114.754077 -0.00252285 110.43116 -0.00252285 105.920743 L -0.00252285 16.998862 C -0.00252285 12.488445 1.789144 8.165528 4.976644 4.978028 C 8.169353 1.790528 12.49227 -0.00113867 16.997478 -0.00113867 Z M 16.997478 -0.00113867 " stroke="#a6a6a6" stroke-width="10" stroke-opacity="1" stroke-miterlimit="4"/></g></g><g clip-path="url(#511609f42a)"><g clip-path="url(#1e9f9eb423)"><path fill="#737373" d="M 497.21875 51.445312 L 550.5625 51.445312 L 550.5625 143.550781 L 497.21875 143.550781 Z M 497.21875 51.445312 " fill-opacity="1" fill-rule="nonzero"/></g></g><g clip-path="url(#c5ee457c48)"><g clip-path="url(#2a60e432bf)"><path stroke-linecap="butt" transform="matrix(0.75, 0, 0, 0.75, 497.219281, 51.446167)" fill="none" stroke-linejoin="miter" d="M 16.999294 -0.00113867 L 54.124296 -0.00113867 C 58.634713 -0.00113867 62.95763 1.790528 66.14513 4.978028 C 69.33263 8.165528 71.124297 12.488445 71.124297 16.998862 L 71.124297 105.920743 C 71.124297 110.43116 69.33263 114.754077 66.14513 117.941577 C 62.95763 121.129077 58.634713 122.920744 54.124296 122.920744 L 16.999294 122.920744 C 12.488877 122.920744 8.16596 121.129077 4.978459 117.941577 C 1.790959 114.754077 -0.00070747 110.43116 -0.00070747 105.920743 L -0.00070747 16.998862 C -0.00070747 12.488445 1.790959 8.165528 4.978459 4.978028 C 8.16596 1.790528 12.488877 -0.00113867 16.999294 -0.00113867 Z M 16.999294 -0.00113867 " stroke="#a6a6a6" stroke-width="10" stroke-opacity="1" stroke-miterlimit="4"/></g></g><g clip-path="url(#472c554124)"><g clip-path="url(#9222da3055)"><path fill="#737373" d="M 431.367188 51.445312 L 484.710938 51.445312 L 484.710938 143.550781 L 431.367188 143.550781 Z M 431.367188 51.445312 " fill-opacity="1" fill-rule="nonzero"/></g></g><g clip-path="url(#e358ebd789)"><g clip-path="url(#a7def374d9)"><path stroke-linecap="butt" transform="matrix(0.75, 0, 0, 0.75, 431.366381, 51.446167)" fill="none" stroke-linejoin="miter" d="M 17.001077 -0.00113867 L 54.126079 -0.00113867 C 58.631288 -0.00113867 62.959413 1.790528 66.146913 4.978028 C 69.334413 8.165528 71.12608 12.488445 71.12608 16.998862 L 71.12608 105.920743 C 71.12608 110.43116 69.334413 114.754077 66.146913 117.941577 C 62.959413 121.129077 58.631288 122.920744 54.126079 122.920744 L 17.001077 122.920744 C 12.49066 122.920744 8.167743 121.129077 4.980243 117.941577 C 1.792743 114.754077 0.00107591 110.43116 0.00107591 105.920743 L 0.00107591 16.998862 C 0.00107591 12.488445 1.792743 8.165528 4.980243 4.978028 C 8.167743 1.790528 12.49066 -0.00113867 17.001077 -0.00113867 Z M 17.001077 -0.00113867 " stroke="#a6a6a6" stroke-width="10" stroke-opacity="1" stroke-miterlimit="4"/></g></g><g fill="#d9d9d9" fill-opacity="1"><g transform="translate(450.330821, 82.552725)"><g><path d="M 3.953125 -13.890625 C 3.753906 -13.398438 3.578125 -12.925781 3.421875 -12.46875 C 3.265625 -12.019531 3.113281 -11.570312 2.96875 -11.125 L 1.640625 -11.125 C 1.691406 -12.1875 1.726562 -13.238281 1.75 -14.28125 C 1.78125 -15.332031 1.796875 -16.203125 1.796875 -16.890625 C 2.628906 -16.878906 3.550781 -16.863281 4.5625 -16.84375 C 5.570312 -16.820312 6.457031 -16.8125 7.21875 -16.8125 C 8.457031 -16.8125 9.503906 -16.820312 10.359375 -16.84375 C 11.222656 -16.863281 12.09375 -16.878906 12.96875 -16.890625 L 13.734375 -15.671875 C 12.628906 -13.816406 11.75 -12.09375 11.09375 -10.5 C 10.4375 -8.914062 9.945312 -7.460938 9.625 -6.140625 C 9.3125 -4.828125 9.09375 -3.648438 8.96875 -2.609375 C 8.851562 -1.578125 8.757812 -0.707031 8.6875 0 L 4.6875 0 C 5.050781 -2.101562 5.75 -4.335938 6.78125 -6.703125 C 7.820312 -9.078125 9.203125 -11.472656 10.921875 -13.890625 C 9.941406 -13.953125 9.085938 -13.988281 8.359375 -14 C 7.640625 -14.019531 6.9375 -14.019531 6.25 -14 C 5.570312 -13.988281 4.804688 -13.953125 3.953125 -13.890625 Z M 3.953125 -13.890625 "/></g></g></g><g clip-path="url(#cf08f21cc0)"><g clip-path="url(#8b34702193)"><path fill="#737373" d="M 365.511719 51.445312 L 418.859375 51.445312 L 418.859375 143.550781 L 365.511719 143.550781 Z M 365.511719 51.445312 " fill-opacity="1" fill-rule="nonzero"/></g></g><g clip-path="url(#244ba0a679)"><g clip-path="url(#6570f77611)"><path stroke-linecap="butt" transform="matrix(0.75, 0, 0, 0.75, 365.513423, 51.446167)" fill="none" stroke-linejoin="miter" d="M 16.997729 -0.00113867 L 54.122731 -0.00113867 C 58.633148 -0.00113867 62.956065 1.790528 66.143565 4.978028 C 69.331065 8.165528 71.122732 12.488445 71.122732 16.998862 L 71.122732 105.920743 C 71.122732 110.43116 69.331065 114.754077 66.143565 117.941577 C 62.956065 121.129077 58.633148 122.920744 54.122731 122.920744 L 16.997729 122.920744 C 12.49252 122.920744 8.169603 121.129077 4.976895 117.941577 C 1.789395 114.754077 -0.00227224 110.43116 -0.00227224 105.920743 L -0.00227224 16.998862 C -0.00227224 12.488445 1.789395 8.165528 4.976895 4.978028 C 8.169603 1.790528 12.49252 -0.00113867 16.997729 -0.00113867 Z M 16.997729 -0.00113867 " stroke="#a6a6a6" stroke-width="10" stroke-opacity="1" stroke-miterlimit="4"/></g></g><g fill="#d9d9d9" fill-opacity="1"><g transform="translate(384.477924, 82.552725)"><g><path d="M 4.6875 -9.453125 C 5.101562 -9.835938 5.648438 -10.175781 6.328125 -10.46875 C 7.015625 -10.757812 7.726562 -10.90625 8.46875 -10.90625 C 9.726562 -10.90625 10.765625 -10.648438 11.578125 -10.140625 C 12.398438 -9.628906 13.015625 -8.96875 13.421875 -8.15625 C 13.828125 -7.351562 14.03125 -6.503906 14.03125 -5.609375 C 14.03125 -4.671875 13.796875 -3.757812 13.328125 -2.875 C 12.867188 -1.988281 12.1875 -1.257812 11.28125 -0.6875 C 10.375 -0.125 9.238281 0.15625 7.875 0.15625 C 6.457031 0.15625 5.265625 -0.144531 4.296875 -0.75 C 3.335938 -1.351562 2.613281 -2.148438 2.125 -3.140625 C 1.632812 -4.128906 1.390625 -5.191406 1.390625 -6.328125 C 1.390625 -8.035156 1.820312 -9.640625 2.6875 -11.140625 C 3.5625 -12.648438 4.816406 -13.941406 6.453125 -15.015625 C 8.085938 -16.085938 10.039062 -16.832031 12.3125 -17.25 L 12.78125 -16.21875 C 10.21875 -15.507812 8.335938 -14.335938 7.140625 -12.703125 C 5.941406 -11.066406 5.34375 -9.085938 5.34375 -6.765625 C 5.34375 -4.941406 5.613281 -3.570312 6.15625 -2.65625 C 6.695312 -1.738281 7.304688 -1.28125 7.984375 -1.28125 C 8.492188 -1.28125 8.910156 -1.457031 9.234375 -1.8125 C 9.566406 -2.164062 9.8125 -2.625 9.96875 -3.1875 C 10.132812 -3.75 10.21875 -4.347656 10.21875 -4.984375 C 10.21875 -5.671875 10.117188 -6.332031 9.921875 -6.96875 C 9.734375 -7.613281 9.457031 -8.140625 9.09375 -8.546875 C 8.738281 -8.953125 8.285156 -9.15625 7.734375 -9.15625 C 7.210938 -9.15625 6.757812 -9.0625 6.375 -8.875 C 5.988281 -8.695312 5.679688 -8.492188 5.453125 -8.265625 C 5.234375 -8.046875 5.085938 -7.867188 5.015625 -7.734375 Z M 4.6875 -9.453125 "/></g></g></g><g clip-path="url(#1a50f5bbbb)"><g clip-path="url(#b41b1b6a07)"><path fill="#737373" d="M 299.660156 51.445312 L 353.003906 51.445312 L 353.003906 143.550781 L 299.660156 143.550781 Z M 299.660156 51.445312 " fill-opacity="1" fill-rule="nonzero"/></g></g><g clip-path="url(#5c590e8a96)"><g clip-path="url(#b1be684060)"><path stroke-linecap="butt" transform="matrix(0.75, 0, 0, 0.75, 299.660525, 51.446167)" fill="none" stroke-linejoin="miter" d="M 16.999509 -0.00113867 L 54.124511 -0.00113867 C 58.634928 -0.00113867 62.957845 1.790528 66.145345 4.978028 C 69.332845 8.165528 71.124512 12.488445 71.124512 16.998862 L 71.124512 105.920743 C 71.124512 110.43116 69.332845 114.754077 66.145345 117.941577 C 62.957845 121.129077 58.634928 122.920744 54.124511 122.920744 L 16.999509 122.920744 C 12.489092 122.920744 8.166175 121.129077 4.978675 117.941577 C 1.791175 114.754077 -0.000492057 110.43116 -0.000492057 105.920743 L -0.000492057 16.998862 C -0.000492057 12.488445 1.791175 8.165528 4.978675 4.978028 C 8.166175 1.790528 12.489092 -0.00113867 16.999509 -0.00113867 Z M 16.999509 -0.00113867 " stroke="#a6a6a6" stroke-width="10" stroke-opacity="1" stroke-miterlimit="4"/></g></g><g fill="#d9d9d9" fill-opacity="1"><g transform="translate(318.625029, 82.552725)"><g><path d="M 2.09375 -8.75 C 2.238281 -9.601562 2.359375 -10.523438 2.453125 -11.515625 C 2.546875 -12.503906 2.625 -13.472656 2.6875 -14.421875 C 2.75 -15.378906 2.78125 -16.203125 2.78125 -16.890625 C 3.582031 -16.878906 4.300781 -16.867188 4.9375 -16.859375 C 5.570312 -16.847656 6.34375 -16.84375 7.25 -16.84375 C 7.570312 -16.84375 7.976562 -16.84375 8.46875 -16.84375 C 8.957031 -16.84375 9.472656 -16.847656 10.015625 -16.859375 C 10.566406 -16.867188 11.078125 -16.875 11.546875 -16.875 C 12.023438 -16.882812 12.398438 -16.890625 12.671875 -16.890625 L 12.5625 -13.546875 C 12.019531 -13.703125 11.34375 -13.832031 10.53125 -13.9375 C 9.71875 -14.039062 8.898438 -14.109375 8.078125 -14.140625 C 7.253906 -14.179688 6.53125 -14.203125 5.90625 -14.203125 C 5.289062 -14.210938 4.882812 -14.21875 4.6875 -14.21875 C 4.5625 -13.800781 4.460938 -13.367188 4.390625 -12.921875 C 4.316406 -12.484375 4.257812 -12.019531 4.21875 -11.53125 C 4.5625 -11.582031 4.890625 -11.613281 5.203125 -11.625 C 5.523438 -11.644531 5.941406 -11.65625 6.453125 -11.65625 C 7.941406 -11.65625 9.207031 -11.367188 10.25 -10.796875 C 11.300781 -10.234375 12.097656 -9.507812 12.640625 -8.625 C 13.191406 -7.738281 13.46875 -6.816406 13.46875 -5.859375 C 13.46875 -4.492188 13.109375 -3.363281 12.390625 -2.46875 C 11.671875 -1.570312 10.71875 -0.898438 9.53125 -0.453125 C 8.351562 -0.00390625 7.054688 0.21875 5.640625 0.21875 C 4.398438 0.21875 3.15625 0.0546875 1.90625 -0.265625 L 2.125 -1.75 C 3.195312 -1.414062 4.257812 -1.25 5.3125 -1.25 C 6.1875 -1.25 6.976562 -1.367188 7.6875 -1.609375 C 8.394531 -1.859375 8.960938 -2.238281 9.390625 -2.75 C 9.816406 -3.257812 10.03125 -3.90625 10.03125 -4.6875 C 10.03125 -5.289062 9.859375 -5.847656 9.515625 -6.359375 C 9.179688 -6.878906 8.679688 -7.296875 8.015625 -7.609375 C 7.359375 -7.929688 6.539062 -8.09375 5.5625 -8.09375 C 4.9375 -8.09375 4.410156 -8.066406 3.984375 -8.015625 C 3.566406 -7.960938 3.210938 -7.890625 2.921875 -7.796875 Z M 2.09375 -8.75 "/></g></g></g><g clip-path="url(#7f300c9029)"><g clip-path="url(#066a6713d6)"><path fill="#737373" d="M 233.808594 51.445312 L 287.152344 51.445312 L 287.152344 143.550781 L 233.808594 143.550781 Z M 233.808594 51.445312 " fill-opacity="1" fill-rule="nonzero"/></g></g><g clip-path="url(#73160e8acb)"><g clip-path="url(#5804b2c9c2)"><path stroke-linecap="butt" transform="matrix(0.75, 0, 0, 0.75, 233.807616, 51.446167)" fill="none" stroke-linejoin="miter" d="M 17.001305 -0.00113867 L 54.126307 -0.00113867 C 58.631516 -0.00113867 62.959641 1.790528 66.147141 4.978028 C 69.334642 8.165528 71.126308 12.488445 71.126308 16.998862 L 71.126308 105.920743 C 71.126308 110.43116 69.334642 114.754077 66.147141 117.941577 C 62.959641 121.129077 58.631516 122.920744 54.126307 122.920744 L 17.001305 122.920744 C 12.490888 122.920744 8.167971 121.129077 4.980471 117.941577 C 1.792971 114.754077 0.00130413 110.43116 0.00130413 105.920743 L 0.00130413 16.998862 C 0.00130413 12.488445 1.792971 8.165528 4.980471 4.978028 C 8.167971 1.790528 12.490888 -0.00113867 17.001305 -0.00113867 Z M 17.001305 -0.00113867 " stroke="#a6a6a6" stroke-width="10" stroke-opacity="1" stroke-miterlimit="4"/></g></g><g fill="#d9d9d9" fill-opacity="1"><g transform="translate(252.772117, 82.552725)"><g><path d="M 11.859375 -17.109375 C 11.835938 -15.398438 11.828125 -13.78125 11.828125 -12.25 C 11.828125 -10.71875 11.828125 -9.171875 11.828125 -7.609375 C 11.828125 -6.753906 11.828125 -5.96875 11.828125 -5.25 C 11.828125 -4.53125 11.832031 -3.785156 11.84375 -3.015625 C 11.851562 -2.242188 11.863281 -1.328125 11.875 -0.265625 L 7.953125 -0.265625 C 8.003906 -1.285156 8.035156 -2.1875 8.046875 -2.96875 C 8.054688 -3.75 8.0625 -4.601562 8.0625 -5.53125 C 8.0625 -6.476562 8.050781 -7.382812 8.03125 -8.25 C 8.019531 -9.125 8.015625 -10.15625 8.015625 -11.34375 C 7.191406 -10.101562 6.507812 -9.097656 5.96875 -8.328125 C 5.425781 -7.566406 4.890625 -6.863281 4.359375 -6.21875 C 4.828125 -6.125 5.503906 -6.0625 6.390625 -6.03125 C 7.273438 -6.007812 8.144531 -6 9 -6 C 9.8125 -6 10.46875 -6 10.96875 -6 C 11.46875 -6.007812 11.898438 -6.019531 12.265625 -6.03125 C 12.628906 -6.039062 12.988281 -6.054688 13.34375 -6.078125 C 13.695312 -6.109375 14.128906 -6.15625 14.640625 -6.21875 L 14.640625 -3.984375 C 13.910156 -4.015625 13.179688 -4.039062 12.453125 -4.0625 C 11.722656 -4.082031 10.929688 -4.09375 10.078125 -4.09375 C 9.222656 -4.09375 8.234375 -4.09375 7.109375 -4.09375 C 6.453125 -4.09375 5.875 -4.09375 5.375 -4.09375 C 4.875 -4.09375 4.320312 -4.082031 3.71875 -4.0625 C 3.125 -4.039062 2.335938 -4.015625 1.359375 -3.984375 L 0.734375 -5.390625 C 2.335938 -7.171875 3.972656 -9.023438 5.640625 -10.953125 C 7.304688 -12.878906 8.882812 -14.929688 10.375 -17.109375 Z M 11.859375 -1.90625 L 14.5 -1.21875 L 14.03125 0 C 13.6875 -0.0195312 13.3125 -0.03125 12.90625 -0.03125 C 12.507812 -0.0390625 12.007812 -0.0507812 11.40625 -0.0625 C 10.8125 -0.0703125 10.035156 -0.078125 9.078125 -0.078125 C 8.671875 -0.078125 8.191406 -0.0703125 7.640625 -0.0625 C 7.085938 -0.0507812 6.535156 -0.0390625 5.984375 -0.03125 C 5.429688 -0.03125 4.953125 -0.0195312 4.546875 0 L 4.09375 -1.21875 L 8.03125 -1.90625 Z M 11.859375 -1.90625 "/></g></g></g><g clip-path="url(#70e99ec797)"><path fill="#c9baa0" d="M 457.007812 23.472656 C 456.421875 22.796875 454.75 20.503906 453.820312 21 C 453.363281 21.246094 453.074219 21.835938 452.621094 22.109375 C 452.148438 22.398438 451.46875 22.617188 450.929688 22.714844 C 451.011719 21.753906 453.054688 19.632812 451.015625 19.441406 C 450.277344 19.371094 449.5 19.269531 448.75 19.257812 C 447.988281 19.246094 447.332031 19.417969 446.578125 19.210938 C 445.058594 18.789062 443.117188 18.796875 443.753906 16.777344 C 443.972656 16.078125 443.863281 15.832031 443.113281 15.464844 C 442.617188 15.21875 442.003906 15.132812 441.503906 14.976562 C 438.855469 14.132812 436.300781 13.285156 433.550781 13.023438 C 432.851562 12.957031 432.152344 12.699219 431.496094 12.578125 C 430.003906 12.304688 421.644531 10.292969 420.914062 10.144531 C 419.980469 9.957031 420.210938 11.507812 420.109375 11.945312 C 418.015625 11.402344 405.847656 9.433594 403.800781 9.058594 C 403.097656 8.929688 393.019531 8.050781 390.230469 8.324219 C 389.664062 9.371094 389.390625 11.324219 387.855469 10.8125 C 386.515625 10.363281 387.527344 8.605469 386.210938 8.238281 C 384.800781 7.847656 375.746094 7.792969 374.285156 7.871094 C 372.636719 7.957031 370.988281 8.039062 369.339844 8.117188 C 367.191406 8.21875 365.019531 8.375 362.867188 8.308594 C 359.777344 8.210938 356.734375 8.867188 353.648438 8.867188 C 351.121094 8.867188 348.632812 8.984375 346.128906 9.101562 C 344.511719 9.175781 342.886719 9.332031 341.308594 9.410156 C 339.917969 9.480469 337.902344 9.632812 336.820312 9.8125 C 336.75 10.445312 336.554688 13.535156 336.058594 14.042969 C 335.714844 13.160156 335.324219 10.066406 334.773438 9.953125 C 334.3125 9.859375 324.535156 11.121094 323.148438 11.121094 C 321.757812 11.121094 320.550781 10.972656 319.191406 11.121094 C 317.878906 11.257812 316.511719 11.289062 315.234375 11.351562 C 312.667969 11.476562 309.800781 11.527344 307.238281 11.523438 C 304.726562 11.519531 300.09375 12.023438 299.253906 14.269531 C 298.6875 15.78125 299.023438 19.789062 297.890625 20.84375 C 296.210938 18.226562 295.898438 14.167969 295.566406 14.253906 C 294.15625 14.625 290.265625 14.898438 288.855469 14.964844 C 287.332031 15.035156 286.097656 15.363281 284.707031 15.949219 C 284.601562 16.476562 285.371094 17.261719 284.949219 17.589844 C 284.660156 17.816406 283.351562 17.824219 283.019531 17.667969 C 282.90625 17.613281 283.175781 16.132812 283.023438 15.976562 C 282.882812 15.835938 276.746094 16.429688 275.273438 16.855469 C 273.851562 17.265625 272.214844 17.199219 270.929688 18.0625 C 270.722656 17.789062 270.761719 17.214844 270.652344 16.855469 C 270.523438 16.433594 270.46875 16.070312 270.46875 15.609375 C 270.46875 14.03125 270.5 12.515625 270.5625 10.941406 C 270.601562 9.863281 270.808594 8.878906 271.027344 7.871094 C 271.121094 7.4375 271.21875 7 271.300781 6.550781 C 271.46875 5.679688 271.730469 4.792969 271.902344 3.921875 C 272.050781 3.167969 271.917969 2.496094 271.195312 2.128906 C 270.632812 1.835938 269.730469 1.867188 269.082031 1.839844 C 268.667969 1.820312 262.882812 3.015625 261.828125 3.335938 C 259.789062 3.949219 252.210938 6.882812 250.335938 7.828125 C 238.554688 13.757812 238.757812 17.335938 238.554688 18.371094 C 238.222656 20.085938 239.636719 20.753906 240.902344 21.695312 C 242.28125 22.71875 243.480469 23.175781 244.445312 24.726562 C 245.730469 26.792969 247.128906 28.667969 248.097656 30.933594 C 249.699219 34.6875 250.269531 38.625 250.382812 42.675781 C 250.730469 42.683594 251.097656 42.578125 251.453125 42.558594 C 251.953125 42.535156 251.90625 42.546875 251.960938 43.03125 C 252.050781 43.789062 252.3125 44.007812 253.0625 44.050781 C 253.824219 44.097656 254.613281 44.070312 255.339844 43.933594 C 255.886719 43.828125 256.679688 43.582031 257.21875 43.824219 C 257.5625 43.976562 257.542969 44.195312 257.675781 44.5 C 257.867188 44.929688 258.214844 45.3125 258.492188 45.691406 C 258.816406 46.132812 259.339844 46.609375 259.425781 47.152344 C 259.527344 47.8125 259.03125 48.457031 259.238281 49.078125 C 259.289062 49.234375 259.441406 49.355469 259.503906 49.507812 C 259.558594 49.640625 259.519531 49.84375 259.589844 49.972656 C 259.75 50.277344 259.914062 50.242188 260.25 50.328125 C 261.546875 50.664062 262.984375 50.390625 264.332031 50.375 C 265.734375 50.359375 267.046875 50.046875 268.457031 49.980469 C 271.570312 49.839844 274.601562 49.34375 277.644531 48.695312 C 278.203125 48.574219 278.773438 48.417969 279.332031 48.285156 C 280.074219 48.109375 280.816406 47.824219 281.570312 47.714844 C 282.441406 47.589844 283.273438 47.277344 284.140625 47.121094 C 284.992188 46.964844 285.796875 46.816406 286.636719 46.59375 C 287.203125 46.441406 287.761719 46.328125 288.347656 46.300781 C 288.949219 46.273438 296.484375 45.246094 296.890625 45.207031 C 297.4375 45.148438 297.976562 45.234375 298.535156 45.207031 C 299.078125 45.179688 299.644531 45.050781 300.179688 44.976562 C 300.796875 44.894531 301.429688 44.921875 302.050781 44.851562 C 303.289062 44.714844 304.460938 44.597656 305.695312 44.65625 C 305.921875 44.667969 306.179688 44.683594 306.402344 44.65625 C 306.734375 44.621094 306.742188 44.539062 306.757812 44.207031 C 306.785156 43.644531 306.78125 43.144531 306.914062 42.601562 C 306.972656 42.351562 306.941406 42.15625 307.214844 42.054688 C 307.4375 41.96875 307.769531 42.074219 307.957031 42.105469 C 308.425781 42.175781 308.917969 42.125 309.398438 42.148438 C 309.433594 42.335938 309.363281 42.5 309.371094 42.691406 C 309.378906 42.914062 309.453125 43.113281 309.464844 43.335938 C 309.480469 43.597656 309.332031 44.046875 309.441406 44.28125 C 309.628906 44.707031 311.011719 44.417969 311.398438 44.394531 C 312.179688 44.351562 312.960938 44.304688 313.742188 44.34375 C 314.304688 44.371094 314.925781 44.476562 315.484375 44.367188 C 315.734375 44.320312 315.90625 44.296875 316.003906 44.042969 C 316.070312 43.859375 316.105469 43.605469 316.15625 43.414062 C 317.132812 43.367188 318.105469 43.324219 319.082031 43.191406 C 319.613281 43.117188 320.144531 43.132812 320.675781 43.039062 C 321.195312 42.949219 321.722656 42.835938 322.246094 42.785156 C 323.175781 42.691406 324.105469 42.660156 325.027344 42.53125 C 325.804688 42.425781 326.574219 42.355469 327.363281 42.355469 C 327.621094 42.355469 327.761719 42.300781 327.980469 42.222656 C 328.238281 42.128906 328.476562 42.140625 328.75 42.113281 C 329.234375 42.070312 329.714844 42.015625 330.199219 41.960938 C 330.953125 41.878906 331.667969 41.960938 332.410156 41.960938 C 334.285156 41.96875 336.179688 41.828125 338.046875 41.683594 C 339.589844 41.5625 341.15625 41.261719 342.664062 41.035156 C 343.28125 40.941406 343.894531 40.878906 344.503906 40.757812 C 345.066406 40.644531 345.589844 40.542969 346.183594 40.515625 C 347.261719 40.460938 348.328125 40.355469 349.414062 40.335938 C 350.425781 40.320312 351.449219 40.355469 352.457031 40.296875 C 352.699219 40.28125 353.109375 40.3125 353.496094 40.296875 L 352.859375 40.292969 C 352.9375 40.292969 353.015625 40.292969 353.09375 40.292969 C 353.265625 40.289062 353.4375 40.289062 353.609375 40.289062 C 353.9375 40.265625 354.234375 40.199219 354.386719 40.03125 C 354.628906 39.757812 354.699219 38.984375 354.839844 38.660156 C 354.789062 38.777344 355.445312 39.84375 355.554688 39.945312 C 356.15625 40.484375 356.363281 40.1875 356.988281 39.984375 C 358.402344 39.519531 359.742188 39.855469 361.203125 39.632812 C 362.78125 39.394531 364.289062 39.09375 365.914062 39.257812 C 367.367188 39.410156 368.886719 39.207031 370.351562 39.355469 C 371.800781 39.5 373.242188 39.777344 374.695312 39.632812 C 376.523438 39.449219 378.214844 39.910156 380.050781 39.90625 C 380.796875 39.90625 382.0625 40.246094 382.730469 40 C 383.347656 39.773438 383.949219 38.835938 384.398438 38.324219 C 384.785156 38.773438 384.703125 39.765625 385.226562 40.003906 C 385.714844 40.226562 386.957031 39.8125 387.535156 39.816406 C 389.042969 39.820312 390.59375 39.800781 392.066406 39.816406 C 395.101562 39.84375 397.9375 40.582031 401.027344 40.734375 C 403.6875 40.867188 406.980469 41.84375 409.5625 40.894531 C 409.515625 40.761719 409.554688 40.628906 409.519531 40.496094 C 409.519531 40.496094 409.550781 40.101562 409.882812 39.488281 C 409.886719 39.566406 410.425781 40.210938 410.5 40.285156 C 410.769531 40.535156 410.886719 40.519531 411.25 40.523438 C 412.3125 40.535156 413.503906 39.855469 414.253906 40.601562 C 415.261719 41.609375 418.058594 41.316406 420.109375 41.417969 C 417.640625 44.917969 415.460938 46.875 413.820312 48.925781 C 411.875 51.359375 409.878906 53.746094 409.28125 56.078125 C 408.648438 58.5625 411.800781 64.832031 418.761719 66.417969 C 421.535156 67.046875 423.839844 68.234375 426.882812 67.953125 C 429.582031 67.703125 432.859375 67.292969 435.5 66.597656 C 441.765625 64.945312 447.640625 60.511719 448.925781 56.300781 C 449.273438 55.15625 449.019531 53.882812 448.6875 52.632812 C 448.289062 44.851562 449.65625 42.585938 451.097656 38.105469 C 451.855469 35.742188 453 33.300781 454.582031 31.363281 C 455.070312 30.765625 455.511719 30.121094 455.898438 29.457031 C 456.289062 28.785156 456.8125 28.195312 457.195312 27.523438 C 457.921875 26.242188 458.035156 24.65625 457.007812 23.472656 Z M 355.941406 40.304688 C 355.929688 40.296875 355.917969 40.289062 355.902344 40.285156 C 355.140625 40.285156 354.375 40.285156 353.609375 40.289062 C 353.574219 40.292969 353.535156 40.292969 353.496094 40.296875 Z M 356.441406 40.304688 L 355.941406 40.304688 C 355.980469 40.324219 356.019531 40.339844 356.058594 40.347656 C 356.15625 40.367188 356.292969 40.34375 356.441406 40.304688 Z M 360.445312 40.308594 C 359.136719 40.296875 357.832031 40.285156 356.523438 40.285156 C 356.496094 40.292969 356.46875 40.300781 356.441406 40.304688 L 361.605469 40.324219 C 361.21875 40.320312 360.832031 40.3125 360.445312 40.308594 " fill-opacity="1" fill-rule="nonzero"/></g><path fill="#bea890" d="M 270.578125 17.289062 C 270.730469 17.390625 270.859375 17.503906 270.949219 17.660156 " fill-opacity="1" fill-rule="nonzero"/><g clip-path="url(#009ee4b30e)"><path fill="#7e756c" d="M 269.800781 1.917969 C 259.75 3.25 252.585938 6.007812 246.375 9.902344 C 242.726562 12.191406 236.554688 17.601562 238.683594 19.730469 C 243.148438 24.199219 253.953125 22.585938 256.90625 22.585938 C 255.160156 20.445312 253.289062 19.078125 252.0625 17.519531 C 253.625 17.828125 259.460938 17.414062 260.183594 17.414062 C 260.285156 17.414062 257.878906 14.578125 256.914062 13.617188 C 258.285156 13.386719 260.570312 12.570312 261.828125 12.273438 C 262.089844 13.070312 262.683594 15.933594 263.011719 16.523438 C 265.285156 15.441406 268.035156 13.441406 269.210938 11.246094 C 273.195312 3.804688 272.625 1.542969 269.800781 1.917969 Z M 448.484375 53.292969 C 447.679688 51.492188 445.898438 50.011719 443.871094 50.214844 C 443.15625 50.289062 445.132812 46.210938 444.304688 46.210938 C 443.949219 46.210938 442.800781 47.574219 442.140625 47.871094 C 440.375 43.46875 437.304688 43.953125 430.015625 42.710938 C 429.265625 43.460938 428.316406 49.765625 428.605469 51.148438 C 428.050781 50.734375 427.253906 49.6875 426.601562 49.425781 C 426.472656 51.253906 425.945312 53.503906 425.945312 54.351562 C 421.628906 52.195312 419.082031 52.585938 417.273438 54.097656 C 418.550781 52.214844 421.503906 48.472656 422.546875 47.027344 C 419.84375 45.746094 416.480469 47.640625 414.179688 48.886719 C 411.8125 50.167969 409.132812 54.136719 409.453125 57.097656 C 409.703125 59.449219 411.5625 62.648438 413.542969 63.96875 C 416.859375 66.179688 420.921875 67.578125 424.886719 67.796875 C 432.359375 68.214844 439.574219 65.683594 444.59375 62.175781 C 447.488281 60.152344 450.097656 56.898438 448.484375 53.292969 " fill-opacity="1" fill-rule="nonzero"/></g><g clip-path="url(#941cf8fb15)"><path fill="#221716" d="M 449.421875 41.207031 C 448.457031 44.460938 448.089844 47.789062 448.230469 51.132812 C 447.339844 50.054688 446.066406 49.359375 444.507812 49.480469 C 444.425781 48.433594 445.683594 43.789062 446.070312 42.742188 C 447.640625 38.511719 445.996094 41.492188 445.847656 41.722656 C 444.382812 43.980469 443.316406 46.378906 442.597656 47.070312 C 442.433594 47.226562 441.582031 45.867188 441.316406 45.414062 C 440.730469 44.40625 439.429688 43.917969 438.355469 43.566406 C 436.792969 43.058594 435.136719 42.8125 433.503906 42.597656 C 429.347656 42.046875 425.246094 41.15625 421.078125 40.757812 C 417.132812 40.378906 414.179688 40.652344 414.085938 40.3125 C 413.800781 39.273438 412.449219 38.515625 412.257812 39.25 C 412.078125 39.929688 412.164062 40.230469 411.242188 40.230469 C 410.828125 40.230469 410.597656 40.171875 410.265625 38.578125 C 409.90625 36.839844 409.710938 37.539062 409.679688 37.972656 C 409.507812 40.3125 409.234375 40.492188 407.78125 40.492188 C 401.464844 40.492188 385.742188 39.417969 385.535156 39.222656 C 385.128906 38.828125 385.011719 37.625 384.996094 37.34375 C 384.949219 36.601562 384.804688 36.515625 384.578125 36.949219 C 383.664062 38.695312 383.398438 39.15625 382.082031 39.15625 C 378.652344 39.15625 355.980469 39.796875 355.804688 39.628906 C 355.632812 39.464844 355.492188 38.605469 355.433594 38.21875 C 355.160156 36.433594 354.980469 37.109375 354.867188 37.355469 C 354.457031 38.238281 354.4375 39.488281 353.929688 39.507812 C 340.828125 40.09375 322.359375 42.070312 315.921875 43.035156 C 315.632812 43.078125 315.363281 42.917969 315.359375 43.277344 C 315.359375 43.324219 315.375 43.890625 315.269531 43.886719 C 314.5625 43.851562 310.5 43.789062 310.5 43.546875 C 310.5 43.359375 310.40625 42.34375 310.394531 41.847656 C 310.386719 41.582031 306.46875 41.65625 306.480469 42.074219 C 306.496094 42.742188 306.492188 44.074219 306.351562 44.074219 C 306.207031 44.074219 296.558594 44.714844 282.78125 47.082031 C 279.027344 47.730469 275.375 48.789062 271.589844 49.285156 C 267.867188 49.773438 264.113281 49.933594 260.359375 49.867188 C 260.253906 49.324219 259.8125 48.289062 260.054688 48.289062 C 260.164062 48.289062 260.265625 47.21875 259.925781 46.777344 C 259.164062 45.792969 258.210938 44.363281 257.296875 43.484375 C 256.945312 43.144531 256.082031 43.441406 255.351562 43.378906 C 254.464844 43.304688 252.578125 43.597656 252.625 43.292969 C 252.667969 42.988281 252.417969 42.117188 252.1875 41.894531 C 252.039062 41.75 250.898438 42.085938 250.863281 41.8125 C 250.828125 41.542969 250.746094 40.296875 250.65625 39.578125 C 250.417969 37.6875 250.03125 35.816406 249.511719 33.976562 C 248.3125 29.730469 246.394531 25.832031 243.316406 22.664062 C 245.796875 23.179688 248.386719 23.320312 250.902344 23.335938 C 252.75 23.351562 256.992188 23.164062 259.253906 22.59375 C 259.863281 23.929688 261.195312 25.769531 261.914062 25.769531 C 262.90625 25.769531 264.621094 24.523438 264.828125 24.328125 C 265.304688 23.867188 265.027344 21.332031 265.179688 21.1875 C 265.335938 21.039062 266.242188 21.082031 266.324219 21.128906 C 267.300781 21.710938 267.605469 22.785156 267.992188 22.828125 C 268.582031 22.898438 269.554688 23.183594 269.726562 22.980469 C 270.285156 21.300781 269.625 19.265625 269.855469 19.039062 C 270.085938 18.808594 271.097656 18.265625 276.074219 17.269531 C 278.160156 16.855469 282.332031 16.179688 282.417969 16.539062 C 282.507812 16.894531 282.882812 17.847656 283.117188 18.082031 C 283.351562 18.3125 284.179688 18.765625 284.683594 18.847656 C 285.019531 18.898438 285.3125 16.8125 285.40625 16.292969 C 285.503906 15.777344 291.789062 15.644531 294.910156 15.039062 C 295.609375 17.148438 297.089844 21.253906 297.964844 22.667969 C 298.230469 23.097656 298.757812 21.59375 298.90625 21.042969 C 299.285156 19.636719 299.273438 18.210938 299.417969 16.773438 C 299.570312 15.222656 299.484375 13.585938 299.824219 13.414062 C 303.238281 11.671875 332.804688 10.523438 334.429688 10.523438 C 334.644531 10.523438 335.019531 12.746094 335.480469 13.917969 C 335.664062 14.382812 336.257812 15.664062 336.367188 15.253906 C 336.746094 13.8125 337.222656 11.320312 337.386719 10.097656 C 342.453125 9.867188 348.71875 9.597656 353.789062 9.410156 C 359.074219 9.214844 364.332031 8.644531 369.613281 8.433594 C 372.097656 8.332031 385.578125 8.332031 386.042969 8.976562 C 386.320312 9.371094 386.148438 10.433594 386.503906 10.777344 C 386.796875 11.058594 389.304688 11.710938 390.25 11.59375 C 390.527344 11.558594 390.722656 9.328125 390.859375 8.730469 C 400.699219 8.398438 410.96875 10.699219 420.519531 12.691406 C 420.875 12.761719 420.960938 11.355469 421.007812 10.976562 C 423.789062 11.6875 426.617188 12.214844 429.445312 12.71875 C 432.65625 13.292969 440.765625 14.316406 443.082031 16.542969 C 443.382812 16.828125 442.40625 18.046875 442.960938 18.402344 C 443.28125 18.605469 445.519531 19.5625 446.070312 19.730469 C 447.714844 20.238281 449.898438 19.550781 451.160156 19.835938 C 452.421875 20.125 449.511719 24.046875 449.335938 25.296875 C 449.277344 25.691406 449.425781 25.484375 449.988281 24.941406 C 451.558594 23.429688 453.464844 22.269531 453.988281 21.464844 C 454.308594 20.972656 457.332031 24.597656 456.960938 25.769531 C 456.308594 27.832031 454.757812 29.746094 453.679688 31.613281 C 451.925781 34.660156 450.417969 37.855469 449.421875 41.207031 Z M 447.179688 58.710938 C 444.699219 62.445312 440.027344 64.632812 435.800781 65.972656 C 431.085938 67.46875 426.164062 67.675781 421.332031 66.554688 C 416.820312 65.507812 411.339844 62.691406 410.222656 57.964844 C 409.617188 55.414062 411.625 49.101562 419.722656 47.425781 C 420.285156 47.308594 420.867188 47.492188 421.414062 47.601562 C 421.238281 47.96875 416.652344 53.917969 416.070312 54.1875 C 415.484375 54.457031 413.925781 55.210938 414.226562 56.015625 C 415.03125 58.167969 417.871094 58.472656 419.859375 58.511719 C 423.445312 58.578125 430.265625 58.699219 430.085938 54.109375 C 430.035156 52.816406 429.515625 52.140625 429.328125 51.347656 C 429.140625 50.558594 429.371094 48.480469 429.457031 47.535156 C 429.578125 46.152344 429.707031 44.636719 430.261719 43.332031 C 431.332031 43.492188 432.40625 43.648438 433.480469 43.792969 C 435.152344 44.023438 436.84375 44.3125 438.410156 44.941406 C 438.96875 45.164062 439.542969 45.496094 439.9375 45.953125 C 440.582031 46.695312 442.089844 49.210938 442.390625 48.730469 C 443.132812 47.527344 444.160156 46.347656 443.675781 47.746094 C 443.457031 48.378906 442.511719 50.820312 442.925781 50.785156 C 446.035156 50.535156 447.90625 52.652344 448.289062 54.75 C 448.542969 56.136719 447.941406 57.566406 447.179688 58.710938 Z M 419.179688 52.90625 C 419.613281 52.457031 420.023438 51.992188 420.410156 51.511719 C 421.199219 50.53125 422.214844 49.167969 422.46875 47.867188 C 423.75 48.265625 424.929688 48.921875 425.984375 49.761719 C 425.714844 51.039062 425.539062 53.699219 424.859375 53.40625 C 423.84375 52.96875 421.71875 52.242188 420.644531 52.472656 C 420.152344 52.578125 419.664062 52.730469 419.179688 52.90625 Z M 419.472656 53.976562 C 419.964844 53.796875 420.460938 53.601562 420.980469 53.519531 C 422.25 53.328125 423.273438 53.863281 424.347656 54.414062 C 424.933594 54.714844 425.546875 54.96875 426.183594 55.136719 C 426.710938 55.277344 426.835938 52.074219 426.710938 50.386719 C 428.085938 51.710938 429.246094 53.597656 428.40625 55.433594 C 427.429688 57.574219 424.160156 57.335938 422.15625 57.355469 C 420.980469 57.367188 419.808594 57.402344 418.632812 57.269531 C 418.0625 57.203125 415.4375 56.332031 415.746094 55.691406 C 416.054688 55.046875 418.628906 54.277344 419.472656 53.976562 Z M 417.066406 46.644531 C 418.390625 45.21875 419.707031 43.667969 420.460938 41.878906 C 420.613281 41.894531 420.769531 41.914062 420.925781 41.9375 C 423.5625 42.296875 426.1875 42.710938 428.816406 43.113281 C 428.328125 44.449219 428.183594 45.933594 428.128906 47.324219 C 428.09375 48.183594 428.125 49.042969 428.207031 49.898438 C 427.953125 49.632812 427.695312 49.378906 427.433594 49.144531 C 425.832031 47.699219 423.890625 46.835938 421.746094 46.441406 C 420.074219 46.132812 418.464844 46.273438 416.972656 46.746094 C 417.003906 46.714844 417.035156 46.679688 417.066406 46.644531 Z M 260.121094 12.34375 C 257.035156 13.558594 255.347656 13.054688 255.785156 13.371094 C 255.832031 13.40625 258.425781 15.621094 259.160156 17.003906 C 259.136719 17.007812 259.113281 17.011719 259.089844 17.011719 C 256.9375 17.285156 254.292969 17.34375 252.167969 16.816406 C 250.03125 16.285156 252.457031 13.878906 254.523438 12.785156 C 256.238281 11.878906 258.742188 10.820312 260.75 11.109375 C 261.988281 11.285156 260.578125 12.164062 260.121094 12.34375 Z M 261.421875 12.863281 C 261.445312 13.140625 261.484375 13.414062 261.523438 13.667969 C 261.65625 14.582031 262.023438 15.40625 262.324219 16.269531 C 261.695312 16.492188 261.046875 16.664062 260.386719 16.800781 C 259.640625 15.757812 258.714844 14.855469 257.800781 13.945312 C 258.644531 13.910156 259.511719 13.671875 260.234375 13.40625 C 260.558594 13.285156 261 13.105469 261.421875 12.863281 Z M 268.324219 19.152344 C 268.53125 19.546875 269.136719 21.074219 268.859375 21.339844 C 268.769531 21.425781 268.144531 21.3125 268.039062 21.226562 C 267.859375 21.085938 267.238281 19.71875 266.769531 19.773438 C 266.003906 19.855469 264.929688 19.867188 264.105469 19.96875 C 263.765625 20.011719 264.210938 22.757812 264.003906 23.195312 C 263.835938 23.554688 263.28125 24.101562 261.855469 24.101562 C 261.222656 24.101562 260.433594 21.132812 260.183594 21.261719 C 258.664062 22.035156 257.847656 21.875 256.863281 22.011719 C 256.898438 21.800781 254.472656 19.21875 254.234375 18.980469 C 253.9375 18.683594 253.632812 18.390625 253.332031 18.097656 C 254 18.132812 254.644531 18.121094 255.15625 18.132812 C 257.972656 18.183594 262.277344 18.265625 267.441406 14.363281 C 268.671875 13.433594 269.472656 12.070312 270.21875 10.746094 C 270.175781 11.320312 270.144531 11.890625 270.121094 12.457031 C 270.078125 13.546875 270.09375 14.636719 270.164062 15.726562 C 270.203125 16.3125 270.214844 17.050781 270.371094 17.699219 C 269.746094 17.941406 269.132812 18.21875 268.550781 18.546875 C 268.324219 18.675781 268.199219 18.921875 268.324219 19.152344 Z M 239.316406 18.019531 C 239.667969 16.28125 241.023438 14.828125 242.308594 13.648438 C 243.929688 12.164062 245.820312 10.960938 247.734375 9.859375 C 251.175781 7.882812 254.84375 6.339844 258.625 5.074219 C 261.785156 4.019531 264.945312 3.011719 268.277344 2.597656 C 269.542969 2.4375 271.476562 2.097656 271.328125 3.832031 C 271.15625 5.828125 270.164062 7.957031 269.269531 9.734375 C 268.328125 11.605469 267.058594 13.300781 265.378906 14.621094 C 264.78125 15.09375 264.132812 15.484375 263.449219 15.808594 C 262.789062 14.953125 262.328125 12.574219 262.386719 12.347656 C 262.472656 12.035156 263.039062 11.488281 262.636719 10.890625 C 262.152344 10.175781 259.386719 10.320312 258.421875 10.515625 C 256.359375 10.9375 254.136719 11.566406 252.460938 12.820312 C 251.46875 13.5625 249.042969 15.585938 250.199219 17.007812 C 251.074219 18.089844 254.160156 19.78125 255.929688 22.132812 C 252.742188 22.496094 249.460938 22.460938 246.335938 22.066406 C 240.546875 21.332031 239.027344 19.429688 239.316406 18.019531 Z M 458.664062 26.554688 C 458.53125 24.964844 456.394531 20.5 455.347656 20.921875 C 454.863281 21.117188 454.066406 19.941406 453.960938 20.1875 C 453.519531 21.234375 451.457031 22.921875 451.660156 22.246094 C 451.863281 21.566406 452.28125 20.40625 452.582031 19.589844 C 452.699219 19.265625 452.378906 19.191406 452.144531 19.117188 C 450.878906 18.722656 449.648438 19.046875 448.339844 19.148438 C 446.730469 19.273438 445.804688 18.714844 445.363281 18.441406 C 443.59375 17.332031 446.15625 16.792969 444.324219 15.703125 C 439.523438 12.839844 433.558594 12.453125 430.589844 11.917969 C 427.265625 11.324219 421.222656 9.757812 419.878906 9.054688 C 419.519531 8.867188 419.527344 11.113281 419.492188 11.507812 C 402.417969 7.242188 389.394531 7.558594 389.382812 7.894531 C 389.359375 8.558594 389.148438 10.0625 388.980469 10.222656 C 388.8125 10.382812 387.4375 10.019531 387.4375 9.867188 C 387.4375 9.429688 387.351562 8.003906 387.050781 7.671875 C 386.78125 7.378906 384.53125 7.546875 383.230469 7.578125 C 382.234375 7.601562 372.230469 7.367188 369.882812 7.445312 C 364.597656 7.621094 359.328125 8.222656 354.039062 8.421875 C 348.683594 8.625 336.199219 8.679688 336.191406 9.027344 C 336.171875 9.992188 336.335938 12.546875 336.082031 12.15625 C 335.824219 11.765625 335.988281 9.390625 335.429688 9.359375 C 330.84375 9.117188 301.90625 10.769531 298.433594 12.738281 C 297.90625 13.039062 298.300781 14.363281 298.300781 15.875 C 298.300781 16.789062 298.304688 19.3125 297.777344 18.808594 C 297.25 18.300781 296.929688 13.625 296.617188 13.707031 C 293.011719 14.605469 286.402344 14.460938 284.019531 15.621094 C 283.777344 15.738281 284.0625 16.71875 284.0625 17.039062 C 284.0625 17.359375 283.585938 16.917969 283.539062 16.65625 C 283.492188 16.394531 283.421875 15.496094 283.171875 15.503906 C 280.625 15.605469 278.082031 15.90625 275.578125 16.355469 C 274.125 16.617188 272.628906 16.929688 271.203125 17.402344 C 271.175781 17.253906 271.148438 17.105469 271.128906 16.964844 C 271.003906 15.960938 270.976562 14.949219 270.972656 13.941406 C 270.96875 12.03125 271.128906 10.117188 271.453125 8.226562 C 272.085938 6.785156 272.652344 5.226562 272.78125 3.714844 C 273.117188 -0.160156 265.773438 1.9375 263.941406 2.40625 C 259.453125 3.558594 255.035156 5.113281 250.855469 7.066406 C 247.007812 8.867188 243.058594 11.046875 240.152344 14.125 C 238.847656 15.503906 237.308594 17.710938 237.820312 19.695312 C 238.097656 20.753906 238.4375 21.472656 240.371094 21.914062 C 242.621094 22.425781 247.503906 29.515625 248.84375 34.394531 C 249.3125 36.105469 249.523438 37.847656 249.707031 39.601562 C 249.804688 40.507812 249.78125 42.304688 250.027344 43.1875 C 250.121094 43.511719 251.285156 42.910156 251.464844 43.082031 C 251.640625 43.25 251.617188 43.753906 251.617188 44.585938 C 251.617188 44.871094 256.765625 44.402344 257.09375 44.566406 C 257.417969 44.730469 258.871094 46.855469 258.925781 47.546875 C 258.980469 48.214844 258.746094 48.085938 258.746094 48.304688 C 258.746094 48.984375 258.890625 49.945312 258.917969 50.625 C 258.929688 50.960938 268.460938 51.605469 280.222656 48.742188 C 286.074219 47.316406 303.050781 45.183594 307.390625 45.109375 C 307.523438 45.105469 307.566406 42.957031 307.566406 42.679688 C 307.566406 42.402344 308.96875 42.523438 308.96875 42.859375 C 308.96875 43.191406 309.125 44.101562 309.125 44.792969 C 309.125 45.179688 313.6875 44.535156 316.125 45.078125 C 316.34375 45.125 316.671875 43.941406 316.511719 43.964844 C 303.898438 45.714844 338.042969 40.839844 354.789062 40.582031 C 354.960938 40.578125 355.085938 39.703125 355.160156 40.285156 C 355.183594 40.488281 355.265625 40.773438 355.488281 40.761719 C 366.140625 40.09375 383.667969 40.417969 384 40.253906 C 384.113281 40.199219 384.074219 39.792969 384.308594 39.429688 C 384.546875 39.054688 384.40625 40.292969 384.589844 40.3125 C 385.921875 40.457031 408.429688 42.074219 409.835938 41.238281 C 409.890625 41.207031 409.894531 40.835938 409.894531 40.445312 C 409.894531 39.757812 410.09375 41.351562 410.355469 41.367188 C 411.742188 41.464844 412.277344 41.492188 412.691406 41.402344 C 412.910156 41.355469 412.78125 40.671875 412.972656 40.488281 C 413.148438 40.320312 413.042969 41.347656 413.242188 41.496094 C 413.542969 41.71875 418.496094 41.777344 419.011719 41.789062 C 419.011719 43.558594 411.878906 49.441406 409.984375 52.476562 C 408.703125 54.519531 408.269531 57.152344 409.148438 59.421875 C 409.980469 61.585938 411.714844 63.316406 413.632812 64.648438 C 421.539062 70.136719 432.667969 69.121094 440.929688 65.054688 C 444.355469 63.371094 448.066406 60.726562 449.363281 57.078125 C 449.804688 55.84375 449.832031 54.761719 449.292969 53.046875 C 448.75 51.328125 448.429688 41.105469 456.050781 29.933594 C 457.992188 27.089844 458.714844 27.207031 458.664062 26.554688 " fill-opacity="1" fill-rule="nonzero"/></g><g fill="#d9d9d9" fill-opacity="1"><g transform="translate(55.213388, 82.552725)"><g><path d="M 9.96875 -17.171875 C 9.957031 -15.953125 9.945312 -14.921875 9.9375 -14.078125 C 9.925781 -13.242188 9.914062 -12.53125 9.90625 -11.9375 C 9.894531 -11.351562 9.882812 -10.804688 9.875 -10.296875 C 9.863281 -9.785156 9.859375 -9.25 9.859375 -8.6875 C 9.859375 -7.875 9.863281 -7.117188 9.875 -6.421875 C 9.882812 -5.722656 9.898438 -5.019531 9.921875 -4.3125 C 9.941406 -3.601562 9.957031 -2.800781 9.96875 -1.90625 L 13.296875 -1.21875 L 12.859375 0 C 12.347656 -0.03125 11.632812 -0.0507812 10.71875 -0.0625 C 9.800781 -0.0703125 8.890625 -0.078125 7.984375 -0.078125 C 7.472656 -0.078125 6.882812 -0.0703125 6.21875 -0.0625 C 5.5625 -0.0507812 4.921875 -0.0390625 4.296875 -0.03125 C 3.679688 -0.03125 3.175781 -0.0195312 2.78125 0 L 2.34375 -1.21875 L 5.796875 -1.90625 C 5.835938 -2.757812 5.863281 -3.519531 5.875 -4.1875 C 5.882812 -4.863281 5.890625 -5.523438 5.890625 -6.171875 C 5.898438 -6.816406 5.90625 -7.53125 5.90625 -8.3125 C 5.90625 -9.019531 5.898438 -9.613281 5.890625 -10.09375 C 5.890625 -10.570312 5.882812 -11.050781 5.875 -11.53125 C 5.863281 -12.019531 5.835938 -12.628906 5.796875 -13.359375 L 2.59375 -13.265625 L 2.09375 -14.640625 C 3.132812 -14.773438 4.222656 -15.035156 5.359375 -15.421875 C 6.503906 -15.804688 7.550781 -16.390625 8.5 -17.171875 Z M 9.96875 -17.171875 "/></g></g></g><g fill="#d9d9d9" fill-opacity="1"><g transform="translate(121.066302, 82.552725)"><g><path d="M 1.390625 -12.5 C 2.273438 -13.957031 3.316406 -15.09375 4.515625 -15.90625 C 5.722656 -16.726562 7.035156 -17.140625 8.453125 -17.140625 C 9.285156 -17.140625 10.085938 -16.988281 10.859375 -16.6875 C 11.628906 -16.382812 12.265625 -15.914062 12.765625 -15.28125 C 13.265625 -14.644531 13.515625 -13.820312 13.515625 -12.8125 C 13.515625 -12.257812 13.441406 -11.734375 13.296875 -11.234375 C 13.148438 -10.734375 12.882812 -10.195312 12.5 -9.625 C 12.125 -9.0625 11.570312 -8.40625 10.84375 -7.65625 C 10.113281 -6.914062 9.171875 -6.03125 8.015625 -5 C 6.867188 -3.96875 5.457031 -2.726562 3.78125 -1.28125 L 4.203125 -2.890625 C 4.554688 -2.867188 4.925781 -2.859375 5.3125 -2.859375 C 5.707031 -2.859375 6.117188 -2.859375 6.546875 -2.859375 C 7.179688 -2.859375 7.890625 -2.867188 8.671875 -2.890625 C 9.460938 -2.910156 10.265625 -2.9375 11.078125 -2.96875 C 11.898438 -3.007812 12.664062 -3.054688 13.375 -3.109375 L 13.8125 0 C 12.832031 -0.03125 11.835938 -0.0546875 10.828125 -0.078125 C 9.816406 -0.0976562 8.742188 -0.109375 7.609375 -0.109375 C 6.734375 -0.109375 5.972656 -0.101562 5.328125 -0.09375 C 4.679688 -0.0820312 4.085938 -0.0703125 3.546875 -0.0625 C 3.015625 -0.0507812 2.457031 -0.03125 1.875 0 L 1.390625 -1.125 C 3.003906 -2.769531 4.347656 -4.140625 5.421875 -5.234375 C 6.492188 -6.335938 7.347656 -7.257812 7.984375 -8 C 8.617188 -8.75 9.066406 -9.390625 9.328125 -9.921875 C 9.597656 -10.460938 9.734375 -11.003906 9.734375 -11.546875 C 9.734375 -12.390625 9.457031 -13.066406 8.90625 -13.578125 C 8.363281 -14.097656 7.640625 -14.359375 6.734375 -14.359375 C 5.929688 -14.359375 5.171875 -14.15625 4.453125 -13.75 C 3.734375 -13.351562 2.921875 -12.648438 2.015625 -11.640625 Z M 11.5 -2.859375 C 11.71875 -3.398438 11.90625 -3.910156 12.0625 -4.390625 C 12.21875 -4.878906 12.382812 -5.367188 12.5625 -5.859375 L 14 -5.859375 C 13.925781 -5.109375 13.867188 -4.34375 13.828125 -3.5625 C 13.796875 -2.78125 13.78125 -2 13.78125 -1.21875 C 13.78125 -1.019531 13.785156 -0.816406 13.796875 -0.609375 C 13.804688 -0.398438 13.8125 -0.195312 13.8125 0 Z M 11.5 -2.859375 "/></g></g></g><g fill="#d9d9d9" fill-opacity="1"><g transform="translate(186.919207, 82.552725)"><g><path d="M 7.28125 0.21875 C 6.4375 0.21875 5.503906 0.0546875 4.484375 -0.265625 C 3.472656 -0.597656 2.476562 -1.238281 1.5 -2.1875 L 2.015625 -3.375 C 2.765625 -2.757812 3.550781 -2.289062 4.375 -1.96875 C 5.195312 -1.65625 5.984375 -1.5 6.734375 -1.5 C 7.710938 -1.5 8.53125 -1.789062 9.1875 -2.375 C 9.851562 -2.957031 10.1875 -3.742188 10.1875 -4.734375 C 10.1875 -5.484375 9.984375 -6.113281 9.578125 -6.625 C 9.171875 -7.132812 8.632812 -7.519531 7.96875 -7.78125 C 7.300781 -8.039062 6.597656 -8.171875 5.859375 -8.171875 L 5.390625 -9.421875 C 6.046875 -10.117188 6.597656 -10.707031 7.046875 -11.1875 C 7.492188 -11.664062 7.882812 -12.128906 8.21875 -12.578125 C 8.550781 -13.023438 8.890625 -13.507812 9.234375 -14.03125 C 8.910156 -14.050781 8.578125 -14.066406 8.234375 -14.078125 C 7.898438 -14.085938 7.5 -14.09375 7.03125 -14.09375 C 6.539062 -14.09375 6.097656 -14.085938 5.703125 -14.078125 C 5.316406 -14.066406 4.859375 -14.039062 4.328125 -14 C 4.148438 -13.601562 3.988281 -13.179688 3.84375 -12.734375 C 3.695312 -12.296875 3.523438 -11.835938 3.328125 -11.359375 L 1.984375 -11.359375 C 2.054688 -12.234375 2.097656 -13.179688 2.109375 -14.203125 C 2.117188 -15.234375 2.125 -16.128906 2.125 -16.890625 C 2.925781 -16.878906 3.757812 -16.863281 4.625 -16.84375 C 5.5 -16.820312 6.347656 -16.8125 7.171875 -16.8125 C 8.128906 -16.8125 9.03125 -16.820312 9.875 -16.84375 C 10.71875 -16.863281 11.601562 -16.878906 12.53125 -16.890625 L 12.8125 -14.90625 C 12.15625 -14.25 11.488281 -13.609375 10.8125 -12.984375 C 10.144531 -12.359375 9.53125 -11.742188 8.96875 -11.140625 C 10.144531 -10.890625 11.09375 -10.484375 11.8125 -9.921875 C 12.53125 -9.367188 13.050781 -8.734375 13.375 -8.015625 C 13.707031 -7.304688 13.875 -6.5625 13.875 -5.78125 C 13.875 -4.800781 13.613281 -3.847656 13.09375 -2.921875 C 12.570312 -2.003906 11.820312 -1.25 10.84375 -0.65625 C 9.863281 -0.0703125 8.675781 0.21875 7.28125 0.21875 Z M 7.28125 0.21875 "/></g></g></g><g fill="#d9d9d9" fill-opacity="1"><g transform="translate(640.192069, 82.552725)"><g><path d="M 9.96875 -17.171875 C 9.957031 -15.953125 9.945312 -14.921875 9.9375 -14.078125 C 9.925781 -13.242188 9.914062 -12.53125 9.90625 -11.9375 C 9.894531 -11.351562 9.882812 -10.804688 9.875 -10.296875 C 9.863281 -9.785156 9.859375 -9.25 9.859375 -8.6875 C 9.859375 -7.875 9.863281 -7.117188 9.875 -6.421875 C 9.882812 -5.722656 9.898438 -5.019531 9.921875 -4.3125 C 9.941406 -3.601562 9.957031 -2.800781 9.96875 -1.90625 L 13.296875 -1.21875 L 12.859375 0 C 12.347656 -0.03125 11.632812 -0.0507812 10.71875 -0.0625 C 9.800781 -0.0703125 8.890625 -0.078125 7.984375 -0.078125 C 7.472656 -0.078125 6.882812 -0.0703125 6.21875 -0.0625 C 5.5625 -0.0507812 4.921875 -0.0390625 4.296875 -0.03125 C 3.679688 -0.03125 3.175781 -0.0195312 2.78125 0 L 2.34375 -1.21875 L 5.796875 -1.90625 C 5.835938 -2.757812 5.863281 -3.519531 5.875 -4.1875 C 5.882812 -4.863281 5.890625 -5.523438 5.890625 -6.171875 C 5.898438 -6.816406 5.90625 -7.53125 5.90625 -8.3125 C 5.90625 -9.019531 5.898438 -9.613281 5.890625 -10.09375 C 5.890625 -10.570312 5.882812 -11.050781 5.875 -11.53125 C 5.863281 -12.019531 5.835938 -12.628906 5.796875 -13.359375 L 2.59375 -13.265625 L 2.09375 -14.640625 C 3.132812 -14.773438 4.222656 -15.035156 5.359375 -15.421875 C 6.503906 -15.804688 7.550781 -16.390625 8.5 -17.171875 Z M 9.96875 -17.171875 "/></g></g></g><g fill="#d9d9d9" fill-opacity="1"><g transform="translate(655.59136, 82.552725)"><g><path d="M 7.71875 -17.03125 C 9.800781 -17.03125 11.476562 -16.28125 12.75 -14.78125 C 14.019531 -13.28125 14.65625 -11.101562 14.65625 -8.25 C 14.65625 -6.457031 14.363281 -4.929688 13.78125 -3.671875 C 13.207031 -2.421875 12.398438 -1.46875 11.359375 -0.8125 C 10.328125 -0.164062 9.113281 0.15625 7.71875 0.15625 C 6.3125 0.15625 5.085938 -0.164062 4.046875 -0.8125 C 3.003906 -1.46875 2.191406 -2.421875 1.609375 -3.671875 C 1.023438 -4.929688 0.734375 -6.457031 0.734375 -8.25 C 0.734375 -11.101562 1.375 -13.28125 2.65625 -14.78125 C 3.9375 -16.28125 5.625 -17.03125 7.71875 -17.03125 Z M 7.546875 -15.59375 C 7.078125 -15.59375 6.601562 -15.351562 6.125 -14.875 C 5.65625 -14.40625 5.257812 -13.632812 4.9375 -12.5625 C 4.625 -11.488281 4.46875 -10.050781 4.46875 -8.25 C 4.46875 -6.5625 4.628906 -5.203125 4.953125 -4.171875 C 5.285156 -3.148438 5.710938 -2.410156 6.234375 -1.953125 C 6.765625 -1.503906 7.320312 -1.28125 7.90625 -1.28125 C 8.375 -1.28125 8.835938 -1.503906 9.296875 -1.953125 C 9.765625 -2.410156 10.148438 -3.148438 10.453125 -4.171875 C 10.765625 -5.203125 10.921875 -6.5625 10.921875 -8.25 C 10.921875 -10.050781 10.757812 -11.488281 10.4375 -12.5625 C 10.125 -13.632812 9.707031 -14.40625 9.1875 -14.875 C 8.675781 -15.351562 8.128906 -15.59375 7.546875 -15.59375 Z M 7.546875 -15.59375 "/></g></g></g><g fill="#d9d9d9" fill-opacity="1"><g transform="translate(582.03667, 82.552725)"><g><path d="M 10.765625 -7.515625 C 10.347656 -7.140625 9.78125 -6.804688 9.0625 -6.515625 C 8.34375 -6.222656 7.609375 -6.078125 6.859375 -6.078125 C 5.628906 -6.078125 4.597656 -6.332031 3.765625 -6.84375 C 2.941406 -7.351562 2.328125 -8.007812 1.921875 -8.8125 C 1.515625 -9.625 1.3125 -10.472656 1.3125 -11.359375 C 1.3125 -12.304688 1.535156 -13.21875 1.984375 -14.09375 C 2.441406 -14.976562 3.128906 -15.707031 4.046875 -16.28125 C 4.960938 -16.851562 6.101562 -17.140625 7.46875 -17.140625 C 8.90625 -17.140625 10.109375 -16.832031 11.078125 -16.21875 C 12.046875 -15.613281 12.785156 -14.816406 13.296875 -13.828125 C 13.804688 -12.835938 14.0625 -11.78125 14.0625 -10.65625 C 14.0625 -8.945312 13.644531 -7.335938 12.8125 -5.828125 C 11.988281 -4.316406 10.78125 -3.023438 9.1875 -1.953125 C 7.601562 -0.890625 5.675781 -0.148438 3.40625 0.265625 L 2.9375 -0.765625 C 5.5 -1.472656 7.332031 -2.648438 8.4375 -4.296875 C 9.550781 -5.941406 10.109375 -7.914062 10.109375 -10.21875 C 10.109375 -11.4375 9.972656 -12.445312 9.703125 -13.25 C 9.429688 -14.0625 9.082031 -14.671875 8.65625 -15.078125 C 8.238281 -15.492188 7.804688 -15.703125 7.359375 -15.703125 C 6.867188 -15.703125 6.453125 -15.523438 6.109375 -15.171875 C 5.773438 -14.816406 5.523438 -14.351562 5.359375 -13.78125 C 5.203125 -13.21875 5.125 -12.617188 5.125 -11.984375 C 5.125 -11.316406 5.21875 -10.660156 5.40625 -10.015625 C 5.59375 -9.367188 5.867188 -8.84375 6.234375 -8.4375 C 6.597656 -8.03125 7.054688 -7.828125 7.609375 -7.828125 C 8.128906 -7.828125 8.585938 -7.914062 8.984375 -8.09375 C 9.390625 -8.269531 9.71875 -8.472656 9.96875 -8.703125 C 10.226562 -8.929688 10.382812 -9.109375 10.4375 -9.234375 Z M 10.765625 -7.515625 "/></g></g></g><g fill="#d9d9d9" fill-opacity="1"><g transform="translate(516.183745, 82.552725)"><g><path d="M 12.890625 -13.25 C 12.890625 -12.8125 12.734375 -12.3125 12.421875 -11.75 C 12.117188 -11.195312 11.648438 -10.679688 11.015625 -10.203125 C 10.378906 -9.722656 9.5625 -9.351562 8.5625 -9.09375 L 7.28125 -9.96875 C 8.0625 -10.28125 8.640625 -10.617188 9.015625 -10.984375 C 9.398438 -11.359375 9.65625 -11.722656 9.78125 -12.078125 C 9.90625 -12.429688 9.96875 -12.75 9.96875 -13.03125 C 9.96875 -13.914062 9.703125 -14.582031 9.171875 -15.03125 C 8.648438 -15.488281 8.0625 -15.71875 7.40625 -15.71875 C 6.882812 -15.71875 6.4375 -15.535156 6.0625 -15.171875 C 5.6875 -14.816406 5.5 -14.347656 5.5 -13.765625 C 5.5 -13.253906 5.695312 -12.800781 6.09375 -12.40625 C 6.5 -12.019531 7.023438 -11.65625 7.671875 -11.3125 C 8.316406 -10.96875 8.992188 -10.609375 9.703125 -10.234375 C 10.410156 -9.859375 11.085938 -9.429688 11.734375 -8.953125 C 12.378906 -8.472656 12.898438 -7.910156 13.296875 -7.265625 C 13.691406 -6.617188 13.890625 -5.84375 13.890625 -4.9375 C 13.890625 -3.894531 13.625 -2.992188 13.09375 -2.234375 C 12.570312 -1.472656 11.84375 -0.882812 10.90625 -0.46875 C 9.976562 -0.0507812 8.882812 0.15625 7.625 0.15625 C 6.207031 0.15625 5.046875 -0.0546875 4.140625 -0.484375 C 3.234375 -0.921875 2.566406 -1.492188 2.140625 -2.203125 C 1.710938 -2.910156 1.5 -3.65625 1.5 -4.4375 C 1.5 -5.039062 1.660156 -5.664062 1.984375 -6.3125 C 2.316406 -6.96875 2.84375 -7.578125 3.5625 -8.140625 C 4.289062 -8.710938 5.25 -9.148438 6.4375 -9.453125 L 7.328125 -8.859375 C 6.472656 -8.328125 5.878906 -7.65625 5.546875 -6.84375 C 5.222656 -6.039062 5.0625 -5.273438 5.0625 -4.546875 C 5.0625 -3.816406 5.203125 -3.21875 5.484375 -2.75 C 5.765625 -2.28125 6.128906 -1.921875 6.578125 -1.671875 C 7.023438 -1.429688 7.476562 -1.3125 7.9375 -1.3125 C 8.550781 -1.3125 9.097656 -1.523438 9.578125 -1.953125 C 10.054688 -2.378906 10.296875 -3.007812 10.296875 -3.84375 C 10.296875 -4.507812 10.09375 -5.078125 9.6875 -5.546875 C 9.289062 -6.023438 8.773438 -6.453125 8.140625 -6.828125 C 7.503906 -7.210938 6.832031 -7.582031 6.125 -7.9375 C 5.414062 -8.289062 4.742188 -8.679688 4.109375 -9.109375 C 3.472656 -9.535156 2.957031 -10.03125 2.5625 -10.59375 C 2.164062 -11.15625 1.96875 -11.835938 1.96875 -12.640625 C 1.96875 -13.535156 2.203125 -14.316406 2.671875 -14.984375 C 3.140625 -15.660156 3.804688 -16.1875 4.671875 -16.5625 C 5.535156 -16.945312 6.53125 -17.140625 7.65625 -17.140625 C 8.875 -17.140625 9.867188 -16.953125 10.640625 -16.578125 C 11.410156 -16.203125 11.976562 -15.71875 12.34375 -15.125 C 12.707031 -14.539062 12.890625 -13.914062 12.890625 -13.25 Z M 12.890625 -13.25 "/></g></g></g><g fill="#060502" fill-opacity="1"><g transform="translate(311.795716, 33.093665)"><g><path d="M 1.140625 -18.203125 L 12.578125 -18.203125 C 13.671875 -18.203125 14.691406 -18 15.640625 -17.59375 C 16.597656 -17.1875 17.441406 -16.617188 18.171875 -15.890625 C 18.898438 -15.160156 19.46875 -14.316406 19.875 -13.359375 C 20.28125 -12.410156 20.484375 -11.390625 20.484375 -10.296875 C 20.484375 -9.117188 20.242188 -8.015625 19.765625 -6.984375 C 19.296875 -5.960938 18.640625 -5.082031 17.796875 -4.34375 C 16.953125 -3.613281 15.992188 -3.078125 14.921875 -2.734375 L 20.484375 5.203125 L 17.546875 5.203125 L 12.25 -2.390625 L 3.53125 -2.390625 L 3.53125 5.203125 L 1.140625 5.203125 Z M 18.09375 -10.296875 C 18.09375 -11.296875 17.84375 -12.21875 17.34375 -13.0625 C 16.851562 -13.90625 16.1875 -14.570312 15.34375 -15.0625 C 14.507812 -15.5625 13.585938 -15.8125 12.578125 -15.8125 L 2.515625 -15.8125 C 2.796875 -15.8125 3.035156 -15.707031 3.234375 -15.5 C 3.429688 -15.300781 3.53125 -15.054688 3.53125 -14.765625 L 3.53125 -4.78125 L 12.578125 -4.78125 C 12.878906 -4.78125 13.164062 -4.804688 13.4375 -4.859375 C 14.300781 -4.992188 15.085938 -5.316406 15.796875 -5.828125 C 16.515625 -6.347656 17.078125 -6.992188 17.484375 -7.765625 C 17.890625 -8.535156 18.09375 -9.378906 18.09375 -10.296875 Z M 18.09375 -10.296875 "/></g></g></g><g fill="#060502" fill-opacity="1"><g transform="translate(333.421238, 33.093665)"><g><path d="M 7.640625 0 C 6.441406 0 5.351562 -0.289062 4.375 -0.875 C 3.394531 -1.46875 2.609375 -2.253906 2.015625 -3.234375 C 1.429688 -4.210938 1.140625 -5.300781 1.140625 -6.5 C 1.140625 -7.695312 1.429688 -8.789062 2.015625 -9.78125 C 2.609375 -10.769531 3.394531 -11.550781 4.375 -12.125 C 5.351562 -12.707031 6.441406 -13 7.640625 -13 C 8.835938 -13 9.929688 -12.707031 10.921875 -12.125 C 11.910156 -11.550781 12.691406 -10.769531 13.265625 -9.78125 C 13.847656 -8.789062 14.140625 -7.695312 14.140625 -6.5 C 14.140625 -5.300781 13.847656 -4.210938 13.265625 -3.234375 C 12.691406 -2.253906 11.910156 -1.46875 10.921875 -0.875 C 9.929688 -0.289062 8.835938 0 7.640625 0 Z M 7.640625 -10.640625 C 6.878906 -10.640625 6.1875 -10.453125 5.5625 -10.078125 C 4.9375 -9.703125 4.441406 -9.203125 4.078125 -8.578125 C 3.710938 -7.953125 3.53125 -7.257812 3.53125 -6.5 C 3.53125 -5.738281 3.710938 -5.046875 4.078125 -4.421875 C 4.441406 -3.796875 4.9375 -3.300781 5.5625 -2.9375 C 6.1875 -2.570312 6.878906 -2.390625 7.640625 -2.390625 C 8.398438 -2.390625 9.09375 -2.570312 9.71875 -2.9375 C 10.34375 -3.300781 10.84375 -3.796875 11.21875 -4.421875 C 11.59375 -5.046875 11.78125 -5.738281 11.78125 -6.5 C 11.78125 -7.257812 11.59375 -7.953125 11.21875 -8.578125 C 10.84375 -9.203125 10.34375 -9.703125 9.71875 -10.078125 C 9.09375 -10.453125 8.398438 -10.640625 7.640625 -10.640625 Z M 7.640625 -10.640625 "/></g></g></g><g fill="#060502" fill-opacity="1"><g transform="translate(348.704661, 33.093665)"><g><path d="M 6.53125 0 C 5.539062 0 4.632812 -0.238281 3.8125 -0.71875 C 3 -1.207031 2.347656 -1.859375 1.859375 -2.671875 C 1.378906 -3.492188 1.140625 -4.394531 1.140625 -5.375 L 1.140625 -13 L 3.53125 -13 L 3.53125 -5.375 C 3.53125 -4.820312 3.664062 -4.320312 3.9375 -3.875 C 4.207031 -3.425781 4.566406 -3.066406 5.015625 -2.796875 C 5.460938 -2.523438 5.96875 -2.390625 6.53125 -2.390625 C 7.082031 -2.390625 7.582031 -2.523438 8.03125 -2.796875 C 8.476562 -3.066406 8.835938 -3.425781 9.109375 -3.875 C 9.378906 -4.320312 9.515625 -4.820312 9.515625 -5.375 L 9.515625 -13 L 11.90625 -13 L 11.90625 -5.375 C 11.90625 -4.394531 11.660156 -3.492188 11.171875 -2.671875 C 10.691406 -1.859375 10.046875 -1.207031 9.234375 -0.71875 C 8.421875 -0.238281 7.519531 0 6.53125 0 Z M 6.53125 0 "/></g></g></g><g fill="#060502" fill-opacity="1"><g transform="translate(361.752756, 33.093665)"><g><path d="M 3.53125 -9.09375 L 3.53125 0 L 1.140625 0 L 1.140625 -13 L 3.953125 -13 L 6.53125 -8.78125 L 7.9375 -6.5 L 9.515625 -3.921875 L 9.515625 -13 L 11.90625 -13 L 11.90625 0 L 9.09375 0 L 6.53125 -4.21875 L 5.125 -6.5 Z M 3.53125 -9.09375 "/></g></g></g><g fill="#060502" fill-opacity="1"><g transform="translate(374.800851, 33.093665)"><g><path d="M 7.671875 0 L 1.140625 0 L 1.140625 -13 L 7.671875 -13 C 8.867188 -13 9.957031 -12.707031 10.9375 -12.125 C 11.914062 -11.550781 12.695312 -10.769531 13.28125 -9.78125 C 13.875 -8.789062 14.171875 -7.695312 14.171875 -6.5 C 14.171875 -5.300781 13.875 -4.210938 13.28125 -3.234375 C 12.695312 -2.253906 11.914062 -1.46875 10.9375 -0.875 C 9.957031 -0.289062 8.867188 0 7.671875 0 Z M 2.34375 -2.390625 L 7.671875 -2.390625 C 8.410156 -2.390625 9.09375 -2.570312 9.71875 -2.9375 C 10.34375 -3.300781 10.84375 -3.796875 11.21875 -4.421875 C 11.59375 -5.046875 11.78125 -5.738281 11.78125 -6.5 C 11.78125 -7.257812 11.59375 -7.953125 11.21875 -8.578125 C 10.84375 -9.203125 10.34375 -9.703125 9.71875 -10.078125 C 9.09375 -10.453125 8.410156 -10.640625 7.671875 -10.640625 L 3.53125 -10.640625 L 3.53125 -3.59375 C 3.53125 -3.257812 3.410156 -2.972656 3.171875 -2.734375 C 2.941406 -2.503906 2.664062 -2.390625 2.34375 -2.390625 Z M 2.34375 -2.390625 "/></g></g></g><g fill="#060502" fill-opacity="1"><g transform="translate(311.382057, 32.680007)"><g><path d="M 1.140625 -18.203125 L 12.578125 -18.203125 C 13.671875 -18.203125 14.691406 -18 15.640625 -17.59375 C 16.597656 -17.1875 17.441406 -16.617188 18.171875 -15.890625 C 18.898438 -15.160156 19.46875 -14.316406 19.875 -13.359375 C 20.28125 -12.410156 20.484375 -11.390625 20.484375 -10.296875 C 20.484375 -9.117188 20.242188 -8.015625 19.765625 -6.984375 C 19.296875 -5.960938 18.640625 -5.082031 17.796875 -4.34375 C 16.953125 -3.613281 15.992188 -3.078125 14.921875 -2.734375 L 20.484375 5.203125 L 17.546875 5.203125 L 12.25 -2.390625 L 3.53125 -2.390625 L 3.53125 5.203125 L 1.140625 5.203125 Z M 18.09375 -10.296875 C 18.09375 -11.296875 17.84375 -12.21875 17.34375 -13.0625 C 16.851562 -13.90625 16.1875 -14.570312 15.34375 -15.0625 C 14.507812 -15.5625 13.585938 -15.8125 12.578125 -15.8125 L 2.515625 -15.8125 C 2.796875 -15.8125 3.035156 -15.707031 3.234375 -15.5 C 3.429688 -15.300781 3.53125 -15.054688 3.53125 -14.765625 L 3.53125 -4.78125 L 12.578125 -4.78125 C 12.878906 -4.78125 13.164062 -4.804688 13.4375 -4.859375 C 14.300781 -4.992188 15.085938 -5.316406 15.796875 -5.828125 C 16.515625 -6.347656 17.078125 -6.992188 17.484375 -7.765625 C 17.890625 -8.535156 18.09375 -9.378906 18.09375 -10.296875 Z M 18.09375 -10.296875 "/></g></g></g><g fill="#060502" fill-opacity="1"><g transform="translate(333.007578, 32.680007)"><g><path d="M 7.640625 0 C 6.441406 0 5.351562 -0.289062 4.375 -0.875 C 3.394531 -1.46875 2.609375 -2.253906 2.015625 -3.234375 C 1.429688 -4.210938 1.140625 -5.300781 1.140625 -6.5 C 1.140625 -7.695312 1.429688 -8.789062 2.015625 -9.78125 C 2.609375 -10.769531 3.394531 -11.550781 4.375 -12.125 C 5.351562 -12.707031 6.441406 -13 7.640625 -13 C 8.835938 -13 9.929688 -12.707031 10.921875 -12.125 C 11.910156 -11.550781 12.691406 -10.769531 13.265625 -9.78125 C 13.847656 -8.789062 14.140625 -7.695312 14.140625 -6.5 C 14.140625 -5.300781 13.847656 -4.210938 13.265625 -3.234375 C 12.691406 -2.253906 11.910156 -1.46875 10.921875 -0.875 C 9.929688 -0.289062 8.835938 0 7.640625 0 Z M 7.640625 -10.640625 C 6.878906 -10.640625 6.1875 -10.453125 5.5625 -10.078125 C 4.9375 -9.703125 4.441406 -9.203125 4.078125 -8.578125 C 3.710938 -7.953125 3.53125 -7.257812 3.53125 -6.5 C 3.53125 -5.738281 3.710938 -5.046875 4.078125 -4.421875 C 4.441406 -3.796875 4.9375 -3.300781 5.5625 -2.9375 C 6.1875 -2.570312 6.878906 -2.390625 7.640625 -2.390625 C 8.398438 -2.390625 9.09375 -2.570312 9.71875 -2.9375 C 10.34375 -3.300781 10.84375 -3.796875 11.21875 -4.421875 C 11.59375 -5.046875 11.78125 -5.738281 11.78125 -6.5 C 11.78125 -7.257812 11.59375 -7.953125 11.21875 -8.578125 C 10.84375 -9.203125 10.34375 -9.703125 9.71875 -10.078125 C 9.09375 -10.453125 8.398438 -10.640625 7.640625 -10.640625 Z M 7.640625 -10.640625 "/></g></g></g><g fill="#060502" fill-opacity="1"><g transform="translate(348.291002, 32.680007)"><g><path d="M 6.53125 0 C 5.539062 0 4.632812 -0.238281 3.8125 -0.71875 C 3 -1.207031 2.347656 -1.859375 1.859375 -2.671875 C 1.378906 -3.492188 1.140625 -4.394531 1.140625 -5.375 L 1.140625 -13 L 3.53125 -13 L 3.53125 -5.375 C 3.53125 -4.820312 3.664062 -4.320312 3.9375 -3.875 C 4.207031 -3.425781 4.566406 -3.066406 5.015625 -2.796875 C 5.460938 -2.523438 5.96875 -2.390625 6.53125 -2.390625 C 7.082031 -2.390625 7.582031 -2.523438 8.03125 -2.796875 C 8.476562 -3.066406 8.835938 -3.425781 9.109375 -3.875 C 9.378906 -4.320312 9.515625 -4.820312 9.515625 -5.375 L 9.515625 -13 L 11.90625 -13 L 11.90625 -5.375 C 11.90625 -4.394531 11.660156 -3.492188 11.171875 -2.671875 C 10.691406 -1.859375 10.046875 -1.207031 9.234375 -0.71875 C 8.421875 -0.238281 7.519531 0 6.53125 0 Z M 6.53125 0 "/></g></g></g><g fill="#060502" fill-opacity="1"><g transform="translate(361.339097, 32.680007)"><g><path d="M 3.53125 -9.09375 L 3.53125 0 L 1.140625 0 L 1.140625 -13 L 3.953125 -13 L 6.53125 -8.78125 L 7.9375 -6.5 L 9.515625 -3.921875 L 9.515625 -13 L 11.90625 -13 L 11.90625 0 L 9.09375 0 L 6.53125 -4.21875 L 5.125 -6.5 Z M 3.53125 -9.09375 "/></g></g></g><g fill="#060502" fill-opacity="1"><g transform="translate(374.387192, 32.680007)"><g><path d="M 7.671875 0 L 1.140625 0 L 1.140625 -13 L 7.671875 -13 C 8.867188 -13 9.957031 -12.707031 10.9375 -12.125 C 11.914062 -11.550781 12.695312 -10.769531 13.28125 -9.78125 C 13.875 -8.789062 14.171875 -7.695312 14.171875 -6.5 C 14.171875 -5.300781 13.875 -4.210938 13.28125 -3.234375 C 12.695312 -2.253906 11.914062 -1.46875 10.9375 -0.875 C 9.957031 -0.289062 8.867188 0 7.671875 0 Z M 2.34375 -2.390625 L 7.671875 -2.390625 C 8.410156 -2.390625 9.09375 -2.570312 9.71875 -2.9375 C 10.34375 -3.300781 10.84375 -3.796875 11.21875 -4.421875 C 11.59375 -5.046875 11.78125 -5.738281 11.78125 -6.5 C 11.78125 -7.257812 11.59375 -7.953125 11.21875 -8.578125 C 10.84375 -9.203125 10.34375 -9.703125 9.71875 -10.078125 C 9.09375 -10.453125 8.410156 -10.640625 7.671875 -10.640625 L 3.53125 -10.640625 L 3.53125 -3.59375 C 3.53125 -3.257812 3.410156 -2.972656 3.171875 -2.734375 C 2.941406 -2.503906 2.664062 -2.390625 2.34375 -2.390625 Z M 2.34375 -2.390625 "/></g></g></g></svg>