<?xml version="1.0" standalone="no"?>
<!DOCTYPE svg PUBLIC "-//W3C//DTD SVG 20010904//EN"
 "http://www.w3.org/TR/2001/REC-SVG-20010904/DTD/svg10.dtd">
<svg version="1.0" xmlns="http://www.w3.org/2000/svg"
 width="225.000000pt" height="225.000000pt" viewBox="0 0 225.000000 225.000000"
 preserveAspectRatio="xMidYMid meet">

<rect width="100%" height="100%" fill="#FFFFFF" />

<g transform="translate(0.000000,225.000000) scale(0.100000,-0.100000)"
fill="#000000" stroke="none">
<path d="M0 1125 l0 -1125 1125 0 1125 0 0 1125 0 1125 -1125 0 -1125 0 0
-1125z m1223 884 c51 2 93 -7 82 -17 -3 -3 -25 -5 -48 -3 -30 2 -39 0 -31 -8
6 -7 21 -13 33 -16 34 -6 55 -26 39 -36 -9 -6 -5 -14 15 -33 29 -27 36 -52 12
-42 -18 6 -20 -5 -4 -21 14 -14 3 -64 -14 -60 -6 1 -12 -7 -12 -19 0 -29 -26
-59 -36 -42 -6 9 -10 7 -15 -7 -4 -11 -14 -28 -23 -38 -15 -18 -16 -18 -22 0
-6 17 -7 17 -14 -2 -5 -11 -15 -28 -24 -38 -15 -18 -16 -18 -22 0 -6 16 -8 15
-17 -7 -5 -14 -17 -32 -26 -39 -14 -11 -16 -11 -16 3 0 10 -5 14 -11 11 -6 -4
-8 -13 -5 -20 2 -7 -4 -21 -15 -31 -17 -16 -22 -16 -29 -4 -8 12 -10 9 -10
-10 0 -35 -17 -59 -29 -42 -7 11 -9 11 -14 -2 -3 -8 -2 -18 3 -21 6 -4 10 -18
10 -32 0 -18 -4 -24 -15 -19 -20 7 -19 -18 1 -35 9 -7 14 -22 11 -36 -4 -20 0
-23 24 -23 32 0 48 -16 22 -23 -10 -3 9 -3 42 0 43 3 56 2 45 -6 -8 -5 -11
-13 -7 -17 19 -20 86 84 87 135 0 14 -16 39 -41 64 l-41 41 21 18 c49 39 132
60 236 61 174 0 308 -55 436 -183 130 -128 174 -246 167 -440 -4 -99 -9 -126
-37 -196 -17 -45 -50 -108 -72 -140 -44 -64 -162 -189 -194 -206 -11 -6 17 28
62 75 101 107 145 191 151 284 4 55 2 63 -13 63 -12 0 -15 5 -10 18 29 74 30
188 1 228 -8 10 -27 19 -42 19 -28 2 -29 4 -35 66 -6 67 -18 99 -52 137 -23
25 -65 29 -73 7 -5 -11 -20 -1 -60 40 -49 51 -57 56 -91 53 -33 -3 -38 -6 -41
-31 -3 -28 -4 -28 -23 -11 -11 10 -36 18 -62 18 l-42 1 1 -42 c1 -35 -3 -43
-17 -43 -24 0 -69 -21 -69 -32 0 -5 5 -6 12 -2 8 5 9 2 5 -9 -6 -15 2 -17 54
-17 57 0 59 -1 49 -21 -15 -27 -9 -32 26 -19 46 18 94 70 94 102 0 17 5 28 14
28 25 0 116 -79 161 -141 155 -211 164 -464 24 -673 -88 -132 -208 -218 -364
-261 -60 -16 -377 -34 -364 -21 4 4 67 12 140 17 193 15 299 58 284 116 -5 20
-1 23 22 23 81 0 173 58 173 109 0 15 -5 32 -12 39 -9 9 -1 21 34 51 50 45 71
85 66 127 -2 21 -9 30 -25 32 -19 3 -21 7 -13 28 16 41 12 125 -7 146 -27 30
-43 23 -36 -19 5 -31 4 -35 -10 -30 -21 8 -21 -2 -2 -27 8 -11 15 -33 15 -48
0 -26 -2 -28 -20 -18 -24 13 -26 3 -3 -22 14 -15 14 -24 4 -58 -12 -39 -31
-46 -31 -12 0 14 -2 14 -9 3 -6 -9 -5 -21 2 -32 8 -13 7 -28 -3 -58 -15 -46
-25 -51 -34 -19 -5 19 -8 20 -15 8 -6 -9 -6 -19 1 -27 7 -9 4 -22 -12 -48 -22
-35 -40 -39 -40 -8 0 22 -10 11 -15 -17 -5 -25 -42 -70 -58 -70 -5 0 -6 7 -3
16 5 14 4 15 -9 4 -8 -7 -15 -18 -15 -26 0 -7 -17 -25 -37 -38 -39 -27 -55
-27 -33 -1 26 32 -11 15 -43 -19 -36 -39 -95 -62 -84 -32 9 23 -7 20 -40 -7
-15 -13 -43 -27 -61 -30 -30 -6 -33 -5 -27 13 6 17 3 18 -27 8 -18 -6 -53 -13
-78 -16 -38 -4 -43 -2 -33 10 10 12 2 14 -57 14 -43 -1 -74 4 -81 11 -11 11
-8 13 11 13 20 0 22 2 10 10 -8 5 -29 10 -47 10 -35 0 -83 18 -83 32 0 4 6 8
13 8 21 1 -26 30 -48 30 -12 0 -30 10 -41 22 -19 21 -19 21 0 14 19 -7 19 -6
2 13 -10 11 -22 18 -27 15 -10 -6 -59 25 -59 37 0 5 8 6 18 2 16 -6 16 -5 -1
14 -11 12 -26 19 -36 16 -12 -3 -25 4 -35 18 -15 22 -15 24 1 30 14 5 14 7 2
15 -8 5 -18 9 -23 9 -6 0 -19 15 -30 34 -19 33 -19 34 -1 27 13 -5 11 0 -8 18
-27 25 -39 74 -14 60 6 -4 -1 7 -17 24 -26 28 -27 32 -10 32 16 0 14 4 -11 25
-22 18 -27 27 -17 33 10 7 8 14 -8 32 -23 26 -26 46 -8 52 8 3 7 11 -5 28 -19
27 -23 60 -7 60 6 0 10 9 10 21 0 27 34 22 36 -6 3 -40 14 -101 22 -130 9 -29
10 -28 17 22 5 35 15 59 31 74 20 19 24 20 24 6 0 -23 17 -21 30 3 13 24 76
30 67 6 -5 -11 1 -14 26 -10 34 5 73 -13 49 -23 -16 -6 -5 -23 16 -23 9 0 25
-12 35 -25 15 -22 16 -25 2 -25 -17 0 -21 -25 -5 -35 6 -3 10 -20 10 -37 0
-24 -3 -29 -16 -24 -13 5 -15 2 -11 -15 3 -12 -1 -33 -11 -46 -15 -24 -16 -24
-23 -7 -7 18 -8 17 -15 -4 -3 -12 -19 -29 -35 -37 -36 -19 -43 -19 -35 1 5 14
1 16 -30 11 -20 -3 -39 -9 -42 -12 -8 -8 36 -95 48 -95 5 0 10 -4 10 -10 0
-17 107 -118 162 -152 122 -76 195 -101 297 -102 185 -2 287 32 378 123 62 62
90 148 84 254 -1 24 -18 21 -48 -9 -23 -23 -25 -31 -20 -74 3 -26 3 -51 -1
-54 -3 -4 -6 -21 -6 -38 -1 -37 -23 -50 -28 -16 -2 17 -8 22 -23 19 -11 -3
-87 -5 -170 -5 -82 0 -153 -4 -156 -9 -4 -5 -4 -27 -2 -48 7 -46 -9 -69 -45
-69 -23 0 -24 1 -9 18 12 13 14 27 8 58 -10 52 -16 61 -52 79 -34 18 -117 15
-129 -5 -5 -8 -10 -9 -14 -1 -7 11 10 51 22 51 4 0 13 10 21 21 12 20 11 21
-13 17 -29 -6 -30 -4 -16 23 8 13 21 19 45 19 39 0 46 16 13 29 l-23 8 22 7
c22 7 73 -17 73 -35 0 -15 62 -80 91 -95 56 -29 220 -12 255 27 15 17 15 21
-10 70 -19 39 -26 68 -26 111 l0 59 -34 -26 c-21 -16 -37 -39 -42 -58 -9 -42
-52 -97 -75 -97 -16 0 -17 3 -6 27 8 18 8 28 1 30 -43 14 -149 89 -201 142
-62 62 -63 63 -63 35 -1 -40 -22 -64 -55 -64 -26 0 -27 2 -14 18 8 9 16 42 18
72 2 45 -2 61 -19 83 -31 39 -98 80 -121 74 -11 -3 -19 0 -19 8 0 14 23 36 36
34 15 -2 54 13 54 21 0 4 -10 12 -22 17 -22 10 -22 11 -4 19 11 4 27 2 37 -4
10 -7 26 -12 34 -12 8 0 15 -4 15 -10 0 -5 5 -10 11 -10 7 0 5 10 -5 25 -16
24 -15 25 3 25 28 0 41 -23 51 -88 10 -74 43 -152 78 -185 33 -32 141 -97 160
-97 10 0 12 8 6 33 -4 17 -7 47 -6 65 2 29 0 32 -28 32 -20 0 -30 5 -30 15 0
9 -11 21 -25 27 -14 6 -25 19 -25 30 0 10 -9 23 -20 30 -11 7 -20 23 -20 36 0
12 -7 25 -15 28 -8 4 -15 16 -15 29 0 12 -7 28 -15 35 -8 7 -15 21 -15 32 0
10 -7 21 -15 24 -8 4 -15 14 -15 23 0 17 -61 81 -77 81 -6 0 -16 6 -22 14 -7
8 -32 13 -67 13 -38 0 -57 -4 -61 -13 -3 -8 -13 -14 -22 -14 -22 0 -41 -19
-34 -36 3 -8 -5 -16 -21 -20 -15 -3 -31 -14 -36 -24 -15 -28 -12 -32 11 -20
19 10 20 10 10 -9 -15 -27 -14 -34 4 -27 20 7 19 -3 -1 -26 -12 -12 -14 -22
-7 -30 5 -7 13 -21 17 -32 5 -16 3 -17 -21 -11 -16 4 -30 8 -32 10 -5 6 -12
53 -14 93 -1 18 -6 30 -12 28 -5 -2 -9 -8 -8 -14 2 -6 6 -42 9 -79 5 -57 4
-71 -10 -82 -15 -12 -19 -12 -34 2 -15 15 -15 17 0 17 29 0 41 27 32 72 -11
52 -32 62 -29 13 2 -19 -2 -35 -7 -35 -5 0 -6 -4 -3 -10 8 -12 -5 -13 -25 0
-12 8 -12 14 -1 45 7 20 13 58 13 83 1 31 9 60 24 84 13 20 26 49 30 65 7 28
41 103 48 103 5 0 -6 -54 -14 -65 -4 -5 -10 -23 -14 -40 -7 -29 -6 -29 43 20
51 49 51 49 42 17 -9 -30 -8 -31 9 -22 11 6 24 19 30 30 6 11 20 20 32 20 17
0 18 -2 8 -15 -11 -13 -10 -14 6 -8 10 4 25 13 32 20 16 15 52 17 52 3 0 -5
-5 -10 -12 -10 -6 0 -8 -3 -5 -7 4 -3 18 -1 31 7 30 16 58 7 49 -16 -5 -13 -2
-15 15 -9 26 8 65 -3 56 -16 -3 -5 -11 -6 -17 -2 -7 4 -6 -1 2 -10 8 -10 21
-15 30 -12 10 3 26 -2 37 -10 18 -14 18 -14 -5 -15 -20 0 -22 -2 -11 -15 22
-26 55 -15 58 20 1 17 4 48 7 70 3 22 6 51 6 65 0 14 5 31 11 37 6 7 7 21 3
30 -5 10 -7 27 -6 39 3 28 -37 94 -57 94 -8 0 -23 7 -32 15 -10 9 -24 13 -35
9 -17 -7 -17 -8 1 -21 17 -12 17 -13 -2 -13 -11 0 -30 -8 -43 -17 -22 -15 -23
-17 -6 -23 15 -5 13 -8 -13 -19 -37 -15 -43 -32 -9 -24 15 4 19 2 12 -5 -5 -5
-19 -12 -30 -14 -10 -2 -22 -14 -25 -27 -8 -34 -28 -37 -36 -6 -5 20 1 35 25
65 36 45 38 52 14 43 -16 -6 -16 -5 -4 10 12 15 11 17 -3 17 -9 0 -16 -7 -16
-15 0 -8 -4 -15 -9 -15 -15 0 -80 -67 -73 -75 4 -4 1 -6 -7 -3 -8 2 -19 12
-25 21 -8 13 -3 23 27 52 21 20 45 47 53 61 9 13 37 33 63 45 25 11 57 31 71
44 14 13 38 29 55 35 29 11 29 11 11 -9 -18 -20 -18 -20 18 -14 29 4 35 3 31
-9 -4 -10 2 -14 22 -13 16 0 28 -5 28 -12 0 -7 2 -12 5 -11 10 3 50 -23 50
-33 0 -6 -4 -7 -10 -4 -5 3 -10 1 -10 -5 0 -6 8 -14 18 -17 18 -7 32 -22 32
-36 0 -5 -4 -5 -10 -2 -16 10 -12 -11 5 -25 16 -14 21 -55 5 -45 -5 3 -10 -1
-10 -9 0 -9 5 -16 10 -16 6 0 10 -12 10 -26 0 -14 -4 -23 -10 -19 -5 3 -10 -3
-10 -14 0 -19 2 -18 40 6 22 15 40 30 40 35 0 4 7 8 15 8 8 0 23 9 32 20 10
11 26 20 36 20 9 0 20 7 23 15 4 8 14 15 23 15 45 2 113 105 81 125 -6 4 -8
15 -5 25 4 13 -2 24 -20 36 -30 19 -44 12 -24 -12 12 -16 12 -17 -6 -12 -11 3
-29 9 -40 14 -17 7 -18 6 -7 -8 12 -15 8 -16 -30 -12 -39 4 -41 3 -15 -7 15
-6 27 -15 27 -20 0 -13 -12 -11 -53 6 -33 14 -37 13 -46 -3 -6 -9 -11 -13 -11
-8 0 5 -7 3 -15 -4 -9 -8 -15 -8 -15 -2 0 6 -2 17 -5 24 -7 17 53 48 90 48 14
0 25 5 25 10 0 15 -45 12 -102 -7 -45 -14 -54 -15 -76 -2 -14 8 -27 20 -30 28
-3 8 0 11 7 7 6 -4 11 0 12 11 0 15 2 14 11 -4 14 -30 39 -36 85 -24 21 6 56
11 78 11 35 0 38 2 24 15 -13 13 -21 14 -45 5 -35 -14 -104 -20 -104 -9 0 30
15 39 64 40 28 0 60 5 71 10 11 5 40 6 65 2 25 -3 67 -5 93 -4z m239 -103 c6
-10 17 -15 27 -11 11 3 25 -3 36 -15 10 -11 14 -20 9 -20 -5 0 0 -7 10 -15 13
-10 23 -11 31 -5 8 6 22 0 46 -19 18 -16 39 -27 44 -24 6 2 26 -15 44 -37 18
-22 36 -38 40 -35 11 6 37 -24 51 -60 9 -23 13 -26 20 -15 7 12 13 5 26 -27 9
-24 23 -43 30 -43 12 0 34 -57 34 -89 0 -11 3 -11 14 -2 12 10 15 6 18 -26 2
-24 8 -37 16 -35 8 1 12 -13 12 -44 0 -36 3 -45 14 -41 19 8 23 -8 30 -118 4
-49 9 -112 12 -139 7 -57 -10 -57 -20 1 -3 21 -22 76 -42 123 -19 47 -36 92
-37 100 -1 8 -12 30 -25 48 -13 17 -18 32 -12 32 6 0 -2 11 -17 25 -23 20 -25
26 -14 34 12 8 7 14 -22 31 -39 23 -48 40 -21 40 23 0 7 18 -37 41 -33 17 -38
23 -28 35 9 12 6 16 -20 25 -32 11 -40 24 -18 32 6 2 -5 9 -26 16 -29 10 -35
16 -27 26 8 9 6 14 -5 19 -9 3 -14 10 -11 15 3 5 -5 16 -19 25 -22 14 -25 15
-25 1 0 -8 7 -15 15 -15 14 0 14 -3 0 -30 -8 -16 -14 -33 -13 -38 2 -5 -10
-21 -25 -36 -23 -22 -37 -26 -85 -26 -53 0 -60 3 -90 34 -19 20 -32 45 -32 60
0 14 -4 26 -10 26 -15 0 -12 19 9 48 10 15 19 32 20 37 1 6 15 15 32 20 l31
11 -43 19 c-52 22 -81 44 -73 56 10 16 116 3 126 -15z m-884 -201 c-52 -84
-101 -111 -110 -60 -6 27 1 32 19 14 18 -18 47 -1 77 46 15 25 30 44 33 42 2
-3 -7 -21 -19 -42z"/>
<path d="M1093 1993 c9 -2 23 -2 30 0 6 3 -1 5 -18 5 -16 0 -22 -2 -12 -5z"/>
<path d="M963 1983 c9 -2 23 -2 30 0 6 3 -1 5 -18 5 -16 0 -22 -2 -12 -5z"/>
<path d="M587 1823 c-13 -12 -7 -32 7 -27 19 7 29 34 12 34 -7 0 -16 -3 -19
-7z"/>
<path d="M490 1720 c-8 -5 -12 -11 -9 -14 2 -3 11 -1 19 4 8 5 12 11 9 14 -2
3 -11 1 -19 -4z"/>
<path d="M285 1377 c-4 -10 -5 -21 -1 -24 10 -10 18 4 13 24 -4 17 -4 17 -12
0z"/>
<path d="M265 1239 c-4 -6 -5 -12 -2 -15 2 -3 7 2 10 11 7 17 1 20 -8 4z"/>
<path d="M400 987 c-26 -20 -46 -85 -41 -133 1 -14 72 -44 102 -44 85 0 128
115 62 167 -31 25 -97 31 -123 10z"/>
<path d="M1451 1769 c-36 -34 -13 -99 35 -99 47 0 77 55 58 104 -9 24 -66 20
-93 -5z"/>
</g>
</svg>
